<svg xmlns="http://www.w3.org/2000/svg" width="30" height="21" fill="none"><path fill="#fff" d="m16.088 1.801-5.29 8.728 5.643 9.258c.035.07.052.14.035.211-.018.07-.088.018-.194.035h-4.038c-.282 0-.476-.017-.6-.194-.37-.74-.758-1.463-1.128-2.204a71.355 71.355 0 0 0-1.2-2.221c-.422-.759-.845-1.517-1.269-2.293h-.035c-.37.759-.776 1.517-1.181 2.275a309.82 309.82 0 0 0-1.2 2.257c-.405.74-.81 1.499-1.216 2.222-.07.176-.212.194-.405.194H.13c-.07 0-.123.035-.123-.053a.245.245 0 0 1 .035-.194l5.484-8.993L.183 1.784c-.053-.07-.07-.141-.035-.177.035-.053.106-.07.176-.07h4.003c.088 0 .176.017.247.035a.5.5 0 0 1 .176.159c.335.758.723 1.516 1.129 2.274.423.759.828 1.5 1.27 2.24.422.74.81 1.48 1.18 2.239h.036c.37-.776.758-1.534 1.146-2.275.388-.74.793-1.48 1.199-2.221.405-.74.793-1.5 1.181-2.222.018-.07.053-.141.106-.176a.337.337 0 0 1 .23-.036h3.72a.162.162 0 0 1 .194.124c.017.017-.018.088-.053.123Zm8.146 18.603a8.767 8.767 0 0 1-3.79-.794 6.147 6.147 0 0 1-2.663-2.398c-.653-1.075-.97-2.415-.97-4.02a7.242 7.242 0 0 1 .97-3.72 7.322 7.322 0 0 1 2.803-2.734c1.235-.687 2.716-1.022 4.461-1.022.088 0 .212 0 .37.017.16.018.335.018.547.036V.197c0-.124.053-.194.177-.194h3.579c.088-.018.159.053.176.123v16.822c0 .317.018.67.036 1.058.035.37.052.723.07 1.022 0 .124-.053.23-.176.283-.917.387-1.887.67-2.874.846-.9.159-1.799.247-2.716.247Zm1.728-3.527V9.12c-.159-.035-.317-.07-.476-.088a6.438 6.438 0 0 0-.582-.036c-.688 0-1.375.141-1.992.459-.6.3-1.111.74-1.5 1.305-.387.564-.581 1.322-.581 2.239a4.914 4.914 0 0 0 .3 1.816c.176.476.44.9.793 1.252.335.317.74.564 1.2.705.475.16.97.23 1.463.23.264 0 .511-.018.74-.036.23.018.423-.017.635-.088Z"/></svg>