<svg xmlns="http://www.w3.org/2000/svg" width="154" height="30" fill="none"><path fill="#AAA9AD" fill-rule="evenodd" d="M4.384 0a27.764 27.764 0 0 1 27.763 27.763H23.38A18.995 18.995 0 0 0 4.384 8.767V0Z" clip-rule="evenodd"/><path fill="#AAA9AD" fill-rule="evenodd" d="M5.097.01a3.67 3.67 0 0 1 3.67 3.67v23.947H0V.01h5.097Zm27.05.136v27.618H23.38V.146h8.767Z" clip-rule="evenodd"/><path fill="#AAA9AD" d="M41.367 24.114V7.812h4.347v3.759l-.105-.68c.493-1.076 1.192-1.921 2.098-2.535.905-.624 1.997-.936 3.275-.936 1.268 0 2.304.287 3.11.86.814.574 1.418 1.369 1.81 2.385.393 1.016.59 2.189.59 3.517v9.932h-4.499v-9.645c0-1.157-.191-2.053-.574-2.687-.382-.644-1.046-.966-1.992-.966-1.117 0-1.992.478-2.626 1.434-.624.956-.936 2.42-.936 4.392v7.472h-4.498Zm26.383.392c-1.64 0-3.088-.362-4.346-1.087a7.71 7.71 0 0 1-2.929-3.003c-.704-1.288-1.056-2.773-1.056-4.453 0-1.69.352-3.175 1.056-4.453a7.578 7.578 0 0 1 2.929-3.003c1.258-.725 2.707-1.087 4.347-1.087 1.65 0 3.099.362 4.347 1.087a7.55 7.55 0 0 1 2.943 3.003c.705 1.278 1.057 2.763 1.057 4.453 0 1.69-.352 3.18-1.057 4.468a7.68 7.68 0 0 1-2.943 3.003c-1.258.715-2.707 1.072-4.347 1.072Zm.016-3.305c1.117 0 1.997-.468 2.641-1.404.654-.946.982-2.224.982-3.834 0-1.62-.328-2.898-.982-3.834-.644-.936-1.529-1.403-2.656-1.403-1.117 0-2.002.467-2.657 1.403-.643.936-.965 2.214-.965 3.834s.322 2.898.965 3.834c.655.936 1.545 1.404 2.672 1.404Zm11.426 2.913V7.812h4.347v3.668l-.181-.483c.513-1.207 1.238-2.103 2.173-2.687a5.608 5.608 0 0 1 3.064-.89c.312 0 .63.025.951.075.322.05.644.136.966.257l-.347 3.834a7.067 7.067 0 0 0-1.887-.272c-.493 0-1.011.086-1.554.257-.533.17-1.032.473-1.495.905-.453.423-.825 1.027-1.117 1.812-.281.774-.422 1.766-.422 2.973v6.853h-4.498Zm16.678-.001L91.9 7.812h4.665l2.641 13.615h-.377l3.139-13.615h5.977l3.125 13.66h-.453l2.717-13.66h4.423l-3.985 16.301h-6.249l-3.064-14.58h.785l-3.125 14.58h-6.248Zm29.026.393c-1.037 0-1.992-.181-2.868-.543-.875-.373-1.58-.921-2.113-1.646-.523-.724-.785-1.63-.785-2.716 0-1.168.337-2.159 1.011-2.974.674-.815 1.656-1.434 2.944-1.856 1.287-.433 2.842-.65 4.664-.65h2.294l-.272.408v-.936c0-1.076-.196-1.876-.589-2.4-.392-.533-1.041-.8-1.947-.8-.865 0-1.529.232-1.992.695-.453.453-.729 1.102-.83 1.947l-4.589-.785a5.3 5.3 0 0 1 1.163-2.445c.613-.735 1.459-1.318 2.535-1.751 1.077-.433 2.4-.65 3.97-.65 1.439 0 2.657.232 3.653.695.996.453 1.751 1.192 2.264 2.219.523 1.026.785 2.4.785 4.12v5.54c0 .342.045.568.135.68.101.11.307.165.619.165h.74v3.29h-2.143c-1.178 0-2.073-.291-2.687-.875-.604-.593-.906-1.444-.906-2.55v-.77l.785.301a8.55 8.55 0 0 1-.573 1.389 5.421 5.421 0 0 1-1.057 1.404c-.443.432-1.006.79-1.69 1.071-.685.282-1.525.423-2.521.423Zm1.298-3.08c.705 0 1.328-.16 1.872-.482.543-.322.971-.805 1.283-1.45.311-.653.468-1.463.468-2.43v-.346h-1.902c-1.077 0-1.917.14-2.521.422-.594.282-1.011.63-1.253 1.042-.241.402-.362.795-.362 1.177 0 .302.07.614.211.936.151.322.398.593.74.815.352.211.84.317 1.464.317ZM138.888 30v-3.29h2.732c.221 0 .382-.046.483-.137.111-.09.211-.256.301-.498l.831-2.279-.257 1.63-7.094-17.614h5.027l4.21 13.162-.437-.06 4.196-13.102h5.011l-7.577 19.501c-.393 1.006-.941 1.706-1.645 2.098-.705.393-1.53.589-2.476.589h-3.305Z"/></svg>