<svg xmlns="http://www.w3.org/2000/svg" width="133" height="30" fill="none"><path fill="#AAA9AD" d="m35.716 7.443 5.858 18.711h7.684l5.066-18.711h-4.618l-3.811 14.783h-.814L40.644 7.443h-4.928ZM73.31 26.74c-2.572 0-4.594-.54-6.064-1.62-1.447-1.102-2.205-2.619-2.274-4.548h4.307c.069.643.425 1.23 1.068 1.758.644.528 1.655.792 3.033.792 1.148 0 2.056-.207 2.722-.62.69-.414 1.034-.977 1.034-1.689 0-.62-.264-1.114-.793-1.482-.505-.367-1.378-.608-2.619-.723l-1.654-.173c-2.09-.23-3.698-.827-4.824-1.791-1.125-.965-1.688-2.252-1.688-3.86 0-1.286.321-2.366.964-3.239.644-.873 1.528-1.528 2.654-1.964 1.148-.46 2.458-.69 3.928-.69 2.297 0 4.158.506 5.583 1.517 1.424 1.01 2.17 2.492 2.24 4.445h-4.308c-.046-.643-.368-1.194-.965-1.654-.597-.46-1.459-.69-2.584-.69-1.011 0-1.792.196-2.343.587-.552.39-.828.896-.828 1.516 0 .597.219 1.057.655 1.378.46.322 1.195.54 2.206.655l1.653.172c2.206.23 3.929.839 5.17 1.826 1.263.988 1.895 2.32 1.895 3.998 0 1.24-.345 2.32-1.034 3.239-.666.896-1.608 1.597-2.826 2.102-1.217.505-2.653.758-4.307.758ZM84.263 4.48c.46.482 1.16.723 2.102.723s1.631-.24 2.068-.723c.436-.506.654-1.126.654-1.861 0-.781-.218-1.413-.654-1.895C87.996.24 87.307 0 86.365 0c-.942 0-1.642.241-2.102.724-.437.482-.654 1.114-.654 1.895 0 .735.218 1.355.654 1.86Z"/><path fill="#AAA9AD" fill-rule="evenodd" d="M102.189 26.81c-1.654 0-3.113-.265-4.377-.793-1.263-.529-2.331-1.24-3.205-2.137a9.708 9.708 0 0 1-1.998-3.101 10.006 10.006 0 0 1-.655-3.584v-.723c0-1.287.23-2.504.69-3.653a9.686 9.686 0 0 1 2.032-3.101c.897-.92 1.976-1.631 3.24-2.137 1.263-.528 2.687-.792 4.273-.792 1.585 0 3.009.264 4.272.792 1.264.506 2.332 1.218 3.205 2.137a8.97 8.97 0 0 1 2.033 3.1 9.732 9.732 0 0 1 .689 3.654v.723a9.55 9.55 0 0 1-.689 3.584 9.223 9.223 0 0 1-1.964 3.101c-.873.896-1.941 1.608-3.205 2.137-1.263.528-2.71.793-4.341.793Zm0-4.101c1.171 0 2.159-.253 2.963-.758a5.066 5.066 0 0 0 1.827-2.102c.413-.896.619-1.907.619-3.033 0-1.148-.218-2.16-.654-3.032a4.73 4.73 0 0 0-1.861-2.102c-.804-.529-1.769-.793-2.894-.793-1.126 0-2.102.264-2.93.793-.803.505-1.424 1.206-1.86 2.102-.437.873-.655 1.884-.655 3.032 0 1.126.207 2.137.62 3.033a5.311 5.311 0 0 0 1.86 2.102c.805.505 1.793.758 2.965.758Z" clip-rule="evenodd"/><path fill="#AAA9AD" d="M119.064 10.717a9.108 9.108 0 0 0-.414 1.337v-4.61h-3.791v18.71h4.79V15.163c0-1.218.356-2.182 1.069-2.895.735-.735 1.688-1.102 2.86-1.102 1.148 0 2.044.356 2.687 1.068.667.712 1 1.643 1 2.791v11.13h4.79V15.439c0-2.849-.575-4.985-1.723-6.41-1.149-1.447-2.837-2.17-5.066-2.17h-.207c-1.493 0-2.745.321-3.756.964-.987.644-1.734 1.608-2.239 2.895Zm-61.129.31v15.127h4.79V7.443h-7.408v3.584h2.618Zm26.673 0v15.127h4.79V7.443h-7.41v3.584h2.62Z"/><path fill="#AAA9AD" fill-rule="evenodd" d="M15 30c8.284 0 15-6.716 15-15 0-8.284-6.716-15-15-15C6.716 0 0 6.716 0 15c0 8.284 6.716 15 15 15Zm11.04-16.556c-1.4 1.635-3.37 2.654-5.552 2.654-4.244 0-7.683-3.85-7.683-8.598 0-1.195.217-2.332.61-3.366-5.316.808-9.39 5.398-9.39 10.941 0 1.617.346 3.153.97 4.538.632-.588 1.52-.954 2.505-.954 1.92 0 3.476 1.392 3.476 3.11 0 1.153-.702 2.16-1.744 2.696a11.018 11.018 0 0 0 5.86 1.677c6.112 0 11.067-4.955 11.067-11.067 0-.554-.041-1.1-.12-1.631Z" clip-rule="evenodd"/></svg>