<svg xmlns="http://www.w3.org/2000/svg" width="123" height="31" fill="none"><path fill="#AAA9AD" d="M4.857 15.565v15.36H.707V18.883l4.15-3.317Z" opacity=".4"/><path fill="#AAA9AD" d="M4.857 15.565v15.36h4.15v-12.79l-4.15-2.57Z"/><path fill="#AAA9AD" d="M13.032 9.292v21.634H7.5V13.871l5.533-4.579Z" opacity=".5"/><path fill="#AAA9AD" d="M13.035 9.292v21.634h5.533V12.72l-5.533-3.427Z"/><path fill="#AAA9AD" d="M23.253.926v30h-7.454V7.776l7.454-6.85Z" opacity=".6"/><path fill="#AAA9AD" d="M23.252.926v30h7.454V7.776L23.252.927Zm16.705 21.99V9.61h1.997v13.306h-1.997Zm7.033 0h-1.92v-10.31h1.728v1.075l1.075-1.075h3.82l.826.844.826-.844h4.378l1.344 1.324v8.986h-1.92v-8.505h-4.07v8.505h-1.92v-8.505H47.91l-.921.825v7.68Zm16.837 3.898h-1.92V12.606h1.728v1.075l1.075-1.075h3.937l1.343 1.324v7.642l-1.343 1.344h-4.82v3.898Zm4.244-12.403h-3.322l-.922.825v5.914h4.244v-6.74Zm6.669 8.505h-1.92v-10.31h1.728v1.305l1.324-1.305h2.381v1.843h-2.42l-1.093 1.037v7.43Zm7.051-12.173h-1.996V8.938h1.996v1.805Zm-.038 12.173h-1.92v-10.31h1.92v10.31Zm4.8 0h-1.92v-10.31h1.727v1.075l1.076-1.075h4.108l1.344 1.324v8.986H90.95v-8.505h-3.475l-.922.825v7.68Zm14.306 0h-3.437l-1.344-1.344v-7.373h-1.42v-1.593h1.42v-2.093h1.92v2.093h2.649v1.593h-2.65v6.912h2.862v1.805Zm3.901-12.173h-1.996V8.938h1.996v1.805Zm-.038 12.173h-1.92v-10.31h1.92v10.31Zm5.663 0h-1.92V14.2h-1.67v-1.593h1.67V10.09l1.344-1.324h3.187v1.593h-2.611v2.247h2.419v1.593h-2.419v8.717Zm4.214.653h1.861v1.574h4.321V22.36h-4.993l-1.324-1.325v-8.428h1.92v8.064h4.397v-8.064h1.92V25.49l-1.364 1.325h-5.375l-1.363-1.325v-1.92Z"/></svg>