<svg xmlns="http://www.w3.org/2000/svg" width="50" height="50" fill="none"><g fill="#fff" clip-path="url(#a)"><path d="M38.461 12.821c1.787 0 2.68 0 3.428.119a9.615 9.615 0 0 1 7.992 7.993c.119.747.119 1.64.119 3.427v8.333c0 7.211 0 10.817-1.837 13.344a9.612 9.612 0 0 1-2.127 2.127c-2.527 1.837-6.133 1.837-13.344 1.837H24.36a8.974 8.974 0 0 1-8.975-8.975H20c7.692 0 11.538 0 14.233-1.958a10.26 10.26 0 0 0 2.27-2.27c1.958-2.695 1.958-6.541 1.958-14.233V12.82Z"/><path d="M34.615 17.308c0-7.211 0-10.817-1.836-13.344a9.62 9.62 0 0 0-2.127-2.128C28.124 0 24.519 0 17.308 0 10.097 0 6.49 0 3.964 1.836a9.615 9.615 0 0 0-2.128 2.128C0 6.49 0 10.097 0 17.308v2.564c0 7.21 0 10.816 1.836 13.344a9.613 9.613 0 0 0 2.128 2.127c2.527 1.836 6.133 1.836 13.344 1.836h4.615c5.288 0 7.932 0 9.786-1.346a7.047 7.047 0 0 0 1.56-1.56c1.346-1.854 1.346-4.498 1.346-9.786v-7.18Z"/></g><defs><clipPath id="a"><path fill="#fff" d="M0 0h50v50H0z"/></clipPath></defs></svg>