<svg xmlns="http://www.w3.org/2000/svg" width="30" height="30" fill="none"><path fill="#05080C" fill-rule="evenodd" d="M8 19.138C8 17.399 9.338 16 11 16s3 1.4 3 3.138v7.724C14 28.6 12.662 30 11 30s-3-1.4-3-3.138v-7.724ZM19.138 22C17.399 22 16 20.662 16 19s1.4-3 3.138-3h7.724C28.6 16 30 17.338 30 19s-1.4 3-3.138 3h-7.724ZM16 3.138C16 1.399 17.338 0 19 0s3 1.4 3 3.138v7.724C22 12.6 20.662 14 19 14s-3-1.4-3-3.138V3.138ZM3.138 13.999c-1.739 0-3.138-1.338-3.138-3s1.4-3 3.138-3h7.724c1.738 0 3.138 1.338 3.138 3s-1.4 3-3.138 3H3.138Zm12.862 13c0 1.662 1.338 3 3 3s3-1.338 3-3-1.338-3-3-3h-3v3Zm11-13h-3v-3c0-1.662 1.338-3 3-3s3 1.338 3 3-1.338 3-3 3ZM3 16h3v3c0 1.662-1.338 3-3 3s-3-1.338-3-3 1.338-3 3-3ZM14 3v3h-3C9.338 6 8 4.662 8 3s1.338-3 3-3 3 1.338 3 3Z" clip-rule="evenodd"/></svg>