<svg xmlns="http://www.w3.org/2000/svg" width="73" height="30" fill="none"><mask id="a" width="73" height="30" x="0" y="0" maskUnits="userSpaceOnUse" style="mask-type:luminance"><path fill="#fff" d="M72.5 0H.5v30h72V0Z"/></mask><g mask="url(#a)"><mask id="b" width="72" height="29" x="1" y="0" maskUnits="userSpaceOnUse" style="mask-type:luminance"><path fill="#fff" d="M72.498.977H1.293V28.79h71.205V.977Z"/></mask><g fill="#AAA9AD" mask="url(#b)"><path d="m39.533 22.865-4.839-7.566 4.53-6.69h-2.991l-4.036 6.37v-6.37H29.77v14.256h2.428v-4.382l.89-1.325 3.454 5.707h2.992Z"/><path d="M45.24 23.122c3.453 0 5.967-3.078 5.967-7.374 0-4.296-2.514-7.374-5.968-7.374-3.436 0-5.95 3.078-5.95 7.374 0 4.296 2.514 7.374 5.95 7.374Zm0-2.693c-2.104 0-3.455-2.03-3.455-4.681 0-2.672 1.351-4.68 3.454-4.68 2.104 0 3.471 2.008 3.471 4.68 0 2.65-1.367 4.68-3.47 4.68Zm13.86 2.436c2.171 0 3.317-1.71 3.317-3.847 0-1.796-.974-3.27-2.188-3.506 1.077-.277 1.966-1.474 1.966-3.27 0-1.902-1.111-3.633-3.283-3.633H52.91v14.256h6.19Zm-.718-8.55h-3.044v-3.099h3.044c.82 0 1.334.663 1.334 1.56 0 .898-.514 1.54-1.334 1.54Zm.085 5.921h-3.129v-3.313h3.13c.957 0 1.47.77 1.47 1.667 0 1.026-.547 1.646-1.47 1.646Zm13.853 2.629v-2.672h-5.642v-3.227H72.2v-2.672h-5.523v-3.013h5.643V8.609h-8.07v14.256h8.07ZM22.905 8.263V4.827h-9.408V.977h-3.01v3.85H1.293v3.436h9.218v3.11h-6.99v13.834h2.843V14.81h4.147v13.98h2.939V14.81h4.526v6.516c0 .326-.119.474-.498.474s-1.777 0-2.962-.059c.403.948.83 2.459.948 3.466 1.848 0 3.199-.06 4.194-.593.972-.533 1.256-1.54 1.256-3.228V11.374H13.45v-3.11h9.455Z"/></g></g></svg>