<svg xmlns="http://www.w3.org/2000/svg" width="24" height="24" fill="none"><path fill="#fff" fill-rule="evenodd" d="M2.949.913a2.583 2.583 0 0 1 3.864.241L9.47 4.568a2.58 2.58 0 0 1 .466 2.212l-.81 3.242a1.006 1.006 0 0 0 .264.951l3.637 3.638a1.008 1.008 0 0 0 .953.263l3.24-.81a2.59 2.59 0 0 1 2.213.467l3.413 2.655a2.582 2.582 0 0 1 .241 3.866l-1.53 1.53c-1.096 1.096-2.733 1.577-4.26 1.04a27.535 27.535 0 0 1-10.376-6.544A27.535 27.535 0 0 1 .378 6.703c-.536-1.525-.055-3.164 1.04-4.26L2.95.914Z" clip-rule="evenodd"/></svg>