<svg xmlns="http://www.w3.org/2000/svg" width="101" height="30" fill="none"><path fill="#AAA9AD" d="M37.647 6.765h3.041v16.373h-3.04V6.765Zm13.107 3.742c1.575 0 2.838.46 3.79 1.38.95.92 1.426 2.285 1.426 4.094v7.158h-2.923v-6.784c0-1.091-.258-1.91-.773-2.456-.514-.561-1.247-.842-2.198-.842-1.076 0-1.926.327-2.55.982-.624.64-.936 1.568-.936 2.784v6.316h-2.924V10.648h2.784v1.614a4.573 4.573 0 0 1 1.825-1.31c.733-.296 1.56-.445 2.48-.445Zm19.223.141-5.356 12.49h-3.018l-5.357-12.49h3.041l3.883 9.262 4-9.262h2.807Zm12.058 6.315c0 .203-.016.491-.047.866h-9.801c.172.92.616 1.653 1.334 2.199.733.53 1.637.795 2.713.795 1.372 0 2.503-.452 3.392-1.357l1.567 1.801a5.28 5.28 0 0 1-2.129 1.52c-.858.344-1.824.515-2.9.515-1.373 0-2.581-.273-3.626-.818-1.045-.546-1.856-1.303-2.433-2.27-.561-.982-.842-2.089-.842-3.32 0-1.217.273-2.309.819-3.276a5.947 5.947 0 0 1 2.316-2.292c.982-.546 2.09-.819 3.321-.819 1.217 0 2.3.273 3.252.819a5.524 5.524 0 0 1 2.245 2.269c.546.967.819 2.09.819 3.368Zm-6.316-4.117c-.935 0-1.73.281-2.386.843-.64.545-1.029 1.278-1.17 2.198h7.088c-.125-.904-.507-1.637-1.146-2.198-.64-.562-1.434-.842-2.386-.842Zm10.739-.374c.842-1.31 2.323-1.731 4.444-1.731v2.34a3.71 3.71 0 0 0-.678-.071c-1.139 0-2.028.546-2.667 1.216-.64.655-.96 1.606-.96 2.854v6.058h-2.923v-12.49h2.784v1.824Zm14.308 9.988a3.425 3.425 0 0 1-1.263.632c-.483.14-.998.21-1.544.21-1.372 0-2.432-.358-3.18-1.075-.75-.718-1.123-1.763-1.123-3.135v-6.011h-2.059v-2.34h2.059V7.888h2.923v2.853h3.345v2.34H96.58v5.941c0 .608.149 1.076.445 1.404.296.311.725.467 1.286.467.655 0 1.201-.171 1.638-.514l.818 2.081Z"/><path fill="#AAA9AD" fill-rule="evenodd" d="M30 15c0 8.284-6.716 15-15 15-8.284 0-15-6.716-15-15C0 6.716 6.716 0 15 0c8.284 0 15 6.716 15 15Zm-4.714 0c0 5.68-4.605 10.286-10.286 10.286-.393 0-.782-.023-1.165-.065 5.17-.544 9.198-4.916 9.198-10.23 0-5.286-3.988-9.641-9.12-10.22.357-.037.72-.057 1.087-.057 5.68 0 10.286 4.605 10.286 10.286Zm-13.608 7.245c3.39-.599 5.97-3.615 5.97-7.245s-2.58-6.646-5.97-7.245a7.353 7.353 0 1 1 0 14.49Z" clip-rule="evenodd"/></svg>