<svg xmlns="http://www.w3.org/2000/svg" width="157" height="192" fill="none"><g clip-path="url(#a)"><path fill="#fff" d="M78.644 188.764c41.647 0 75.408-33.761 75.408-75.408s-33.761-75.408-75.408-75.408S3.235 71.709 3.235 113.356s33.762 75.408 75.409 75.408Z"/><path fill="#05080C" d="M110.387 184.736c-39.359 17.503-85.618-.278-103.121-39.637-17.504-39.358.278-85.617 39.636-103.121 39.36-17.503 85.618.278 103.122 39.637 17.503 39.358-.278 85.617-39.637 103.121ZM49.105 46.93C12.477 63.219-4.07 106.27 12.218 142.898c16.289 36.628 59.34 53.177 95.968 36.888 36.628-16.29 53.175-59.341 36.887-95.969-16.289-36.63-59.34-53.176-95.968-36.887Z"/><path fill="#263238" d="m88.344 178.583-.515.081-.626-4.057.494-.078.647 4.054Zm5.152-1.019-.935-3.998.487-.115.956 3.992-.508.121Zm-10.884 1.707-.528.038-.287-4.094.49-.037.325 4.093Zm16.45-3.221-1.226-3.917.477-.151 1.247 3.912-.499.156Zm-22.236 3.427-.53-.006.066-4.104.49.006-.026 4.104Zm27.662-5.316-1.468-3.835.461-.179 1.5 3.822-.493.192Zm-33.452 5.014-.527-.054.438-4.082.49.05-.4 4.086Zm38.763-7.508-1.926-3.625.433-.233 1.96 3.607-.467.251Zm-44.506 6.676-.519-.103.815-4.023.483.094-.779 4.032Zm49.495-9.622-2.236-3.444.408-.269 2.272 3.42c-.147.098-.295.197-.444.293Zm-55.133 8.258-.513-.152 1.194-3.928c.154.047.31.093.465.138l-1.146 3.942Zm59.851-11.636-2.543-3.222.393-.312 2.557 3.213-.407.321Zm-65.346 9.742-.48-.193 1.54-3.806.465.188-1.525 3.811Zm69.741-13.516-2.814-2.989.36-.341 2.833 2.972-.379.358Zm-75.025 11.113-.467-.242 1.898-3.64.444.23-1.875 3.652Zm79.07-15.261-3.068-2.729.333-.373 3.079 2.714-.344.388Zm-84.109 12.373a24.529 24.529 0 0 1-.452-.291l2.245-3.437.408.263-2.2 3.465Zm87.771-16.857-3.292-2.454.293-.395 3.311 2.427-.312.422Zm-92.52 13.52a41.02 41.02 0 0 1-.422-.328l2.543-3.222c.128.101.256.202.386.301l-2.508 3.249Zm95.777-18.312-3.493-2.156.257-.422 3.51 2.129-.274.449ZM34.661 162.707l-.382-.356 2.809-2.995.365.341-2.792 3.01Zm103.032-19.624-3.673-1.833.223-.449 3.68 1.819-.23.463ZM30.585 158.59l-.348-.385 3.052-2.746.337.372-3.041 2.759Zm109.481-20.787-3.816-1.515.181-.46 3.828 1.485-.193.49ZM26.878 154.139l-.314-.413 3.276-2.474.304.4-3.266 2.487Zm115.093-21.802-3.929-1.188c.047-.155.093-.312.138-.468l3.941 1.146-.15.51ZM23.565 149.401l-.284-.449 3.478-2.181.263.415-3.457 2.215Zm119.828-22.683-4.02-.837.099-.482 4.026.8-.105.519ZM20.65 144.398l-.243-.464 3.644-1.892.23.441-3.63 1.915Zm123.67-23.404-4.077-.476.056-.493 4.081.447-.06.522ZM18.16 139.183a42.77 42.77 0 0 1-.208-.493l3.792-1.574c.062.15.126.299.19.448l-3.774 1.619Zm126.581-23.972-4.103-.113.012-.499 4.105.088-.014.524ZM16.102 133.773l-.163-.497 3.903-1.273.155.473-3.895 1.297Zm128.551-24.354-4.099.24-.031-.493 4.096-.277.034.53Zm-130.157 18.8-.123-.514 3.995-.946.116.48-3.988.98Zm129.556-24.567-4.061.602-.074-.49 4.056-.636.079.524Zm-126.64 18.254-4.055.637-.08-.522 4.06-.601.076.486Zm121.54-22.992-.117-.479 3.984-.991.126.513-3.993.957ZM16.796 116.5l-4.096.288-.035-.522 4.097-.263.034.497Zm120.655-22.81-.158-.467 3.88-1.341.171.502-3.893 1.306ZM16.649 111.068 12.544 111l.011-.529 4.104.103-.01.493Zm118.848-22.45-.201-.455 3.754-1.663.21.48-3.763 1.639ZM16.982 105.652l-4.081-.441.057-.519 4.078.466-.054.494Zm116.98-20.3-.223-.44 3.65-1.88.24.473-3.667 1.846ZM17.804 100.285l-4.025-.808.106-.517 4.017.843-.098.482Zm113.5-19.676-.261-.416 3.47-2.194c.094.15.189.3.281.45l-3.49 2.16ZM19.119 95.024l-3.932-1.174c.05-.17.102-.34.154-.509l3.921 1.214-.143.47Zm109.12-18.902-.295-.391 3.264-2.49.32.424-3.289 2.457ZM20.919 89.919l-3.8-1.552.199-.483 3.79 1.575-.189.46Zm103.873-17.997-.329-.363 3.032-2.768c.12.13.238.261.357.393l-3.06 2.738ZM23.198 85l-3.639-1.9.248-.47 3.62 1.935-.23.435Zm97.795-16.952-.365-.339 2.781-3.018.382.352-2.798 3.005Zm-95.062 12.27-3.447-2.23.289-.443 3.428 2.258-.27.414Zm90.93-15.8-.392-.303 2.503-3.255.415.321-2.526 3.236ZM29.089 75.904l-3.228-2.536.329-.415 3.205 2.566-.306.385Zm83.345-14.543-.412-.265 2.205-3.463.445.285-2.238 3.443Zm-79.798 10.43-2.99-2.812c.12-.128.243-.257.366-.385l2.961 2.844-.337.354Zm75.113-13.185a39.83 39.83 0 0 0-.432-.227l1.892-3.644c.158.081.314.165.471.248l-1.931 3.623Zm-71.218 9.391-2.738-3.058.39-.346 2.722 3.073-.374.331Zm66.311-11.727-.453-.19 1.57-3.793.489.205-1.606 3.778Zm-62.108 8.257-2.488-3.267.421-.317 2.462 3.285-.395.299ZM97.75 54.37l-.473-.152 1.24-3.914.499.16-1.266 3.906Zm-52.552 7.017-2.235-3.443.44-.284 2.213 3.458-.418.27Zm47.313-8.467-.483-.11.89-4.007.514.116-.922 4.001Zm-42.623 5.652-1.988-3.59.456-.252 1.97 3.601-.438.242Zm37.277-6.638-.49-.066.536-4.072.522.072-.568 4.066ZM54.712 56.16l-1.59-3.784.49-.203 1.555 3.8-.455.187Zm27.041-4.742-.492-.024.175-4.102.53.025-.213 4.1Zm-21.94 2.86-1.254-3.909.503-.16 1.222 3.92-.472.15Zm16.508-2.898-.497.022-.187-4.101.527-.023.157 4.102Zm-11.265 1.47-.905-4.006.513-.113.875 4.011-.483.107Zm5.847-1.029-.493.065-.548-4.068.523-.069.518 4.072Z"/><path fill="#263238" d="M49.105 46.93s1.445-.688 4.284-1.786c2.836-1.095 7.132-2.483 12.826-3.521a72.674 72.674 0 0 1 21.008-.58 73.797 73.797 0 0 1 26.462 8.448c4.555 2.461 9.048 5.566 13.286 9.31 4.233 3.742 8.245 8.107 11.679 13.144 3.454 5.015 6.436 10.626 8.61 16.746 1.143 3.04 1.989 6.231 2.727 9.484a77.711 77.711 0 0 1 1.422 10.039c.971 13.652-2.013 28.362-9.45 41.326-1.824 3.255-3.976 6.355-6.322 9.332a68.121 68.121 0 0 1-7.817 8.371c-5.665 5.225-12.308 9.526-19.514 12.78-7.245 3.176-14.89 5.229-22.567 5.939a68.06 68.06 0 0 1-11.455.199c-3.784-.252-7.528-.728-11.167-1.553-14.613-3.16-27.536-10.797-37.024-20.663a77.785 77.785 0 0 1-6.503-7.782c-1.922-2.727-3.726-5.494-5.217-8.379-3.088-5.714-5.257-11.688-6.669-17.611-1.439-5.924-1.993-11.827-1.936-17.478.059-5.654.763-11.069 1.987-16.1A73.794 73.794 0 0 1 19.207 71.29a72.684 72.684 0 0 1 14.5-15.21c4.586-3.531 8.493-5.79 11.205-7.164 2.715-1.375 4.193-1.987 4.193-1.987s-.353.188-1.053.531c-.69.361-1.764.807-3.09 1.55-2.694 1.401-6.574 3.686-11.127 7.231A72.944 72.944 0 0 0 19.449 71.46a73.654 73.654 0 0 0-11.33 25.22c-1.206 5.008-1.895 10.397-1.942 16.019-.046 5.618.514 11.486 1.955 17.372 1.411 5.885 3.575 11.818 6.65 17.492 1.485 2.865 3.282 5.611 5.193 8.318a77.276 77.276 0 0 0 6.467 7.724c9.434 9.79 22.273 17.364 36.785 20.494 3.613.819 7.332 1.29 11.087 1.539 3.757.251 7.567.187 11.372-.202 7.62-.705 15.208-2.744 22.4-5.897 7.156-3.232 13.748-7.5 19.374-12.686a67.749 67.749 0 0 0 7.763-8.309c2.33-2.955 4.47-6.031 6.281-9.262 7.393-12.868 10.365-27.473 9.414-41.033a77.411 77.411 0 0 0-1.402-9.974c-.73-3.233-1.565-6.405-2.698-9.425-2.153-6.085-5.109-11.664-8.534-16.655-3.406-5.01-7.386-9.356-11.589-13.086-4.207-3.731-8.668-6.83-13.195-9.288a73.666 73.666 0 0 0-26.316-8.482 72.968 72.968 0 0 0-20.937.488c-5.683 1.005-9.98 2.357-12.824 3.418-1.44.489-2.49.987-3.222 1.257-.72.29-1.096.427-1.096.427Z"/><path fill="#E0E0E0" d="M37.138 40.559a20.286 20.286 0 0 1-10.695-1.087 20.286 20.286 0 0 1-11.33-10.762 20.283 20.283 0 0 1-.403-15.62A20.283 20.283 0 0 1 25.472 1.76c10.284-4.572 22.376.074 26.951 10.359a20.289 20.289 0 0 1 .403 15.62 20.282 20.282 0 0 1-10.762 11.33 20.583 20.583 0 0 1-4.926 1.49ZM31.241 5.307a15.415 15.415 0 0 0-3.694 1.118 15.214 15.214 0 0 0-8.07 8.496 15.21 15.21 0 0 0 .302 11.715c3.43 7.713 12.497 11.199 20.21 7.768a15.212 15.212 0 0 0 8.07-8.497 15.207 15.207 0 0 0-.3-11.714 15.21 15.21 0 0 0-8.497-8.07 15.214 15.214 0 0 0-8.02-.816Z"/><path fill="#05080C" d="m53.58 40.051-15.816 7.034-3.84-8.634a8.655 8.655 0 1 1 15.816-7.034l3.84 8.634Z"/><path fill="#263238" d="M62.05 37.302c.007.036-.499.172-1.416.385a32.1 32.1 0 0 0-1.663.42 39.94 39.94 0 0 0-2.185.616c-3.228.947-7.594 2.571-12.228 4.782-4.633 2.22-8.647 4.583-11.46 6.43a89.609 89.609 0 0 0-3.3 2.24c-.77.546-1.205.835-1.228.807-.022-.029.37-.373 1.103-.97a50.242 50.242 0 0 1 3.215-2.386c2.773-1.936 6.782-4.367 11.44-6.598 4.662-2.223 9.08-3.804 12.356-4.664a32.44 32.44 0 0 1 2.217-.543 22.104 22.104 0 0 1 1.69-.334c.935-.156 1.453-.221 1.46-.185Z"/><path fill="#F5F5F5" d="M112.48 125.493c6.663-18.283-2.758-38.504-21.04-45.167-18.283-6.662-38.505 2.758-45.167 21.04-6.663 18.283 2.757 38.505 21.04 45.168 18.283 6.662 38.505-2.758 45.167-21.041Z"/><path fill="#E0E0E0" d="M72.21 110.917 61.6 74.374l20.926 31.955-10.317 4.588Z"/><path fill="#E0E0E0" d="m79.445 119.355-36.544 10.61 31.955-20.927 4.59 10.317Zm7.411-3.294 10.61 36.543-20.929-31.954 10.319-4.589Z"/><path fill="#E0E0E0" d="m79.619 107.622 36.543-10.61-31.955 20.928-4.588-10.318Zm-4.609 6.78-21.581-12.798 24.476 5.938-2.895 6.86Z"/><path fill="#E0E0E0" d="m82.296 115.2-12.799 21.581 5.939-24.476 6.86 2.895Z"/><path fill="#E0E0E0" d="m84.375 110.274 21.581 12.799-24.476-5.94 2.895-6.859Z"/><path fill="#E0E0E0" d="m77.089 109.477 12.798-21.582-5.938 24.477-6.86-2.895Z"/><path fill="#E0E0E0" d="M74.885 113.144 58.291 92.669l21.948 14.774-5.354 5.701Z"/><path fill="#E0E0E0" d="m81.773 116.586-20.476 16.595 14.774-21.948 5.702 5.353Zm3.844-4.095 16.595 20.476-21.948-14.773 5.353-5.703Z"/><path fill="#E0E0E0" d="m78.73 109.049 20.475-16.594-14.773 21.947-5.703-5.353Z"/><path fill="#F5F5F5" d="m75.981 117.568-26.2-2.856 25.988-4.962.212 7.818Z"/><path fill="#F5F5F5" d="m83.296 115.162-2.855 26.202-4.963-25.989 7.818-.213Z"/><path fill="#F5F5F5" d="m83.143 109.547 26.2 2.856-25.987 4.963-.213-7.819Z"/><path fill="#F5F5F5" d="m75.828 111.953 2.857-26.201 4.961 25.987-7.818.214Z"/><path fill="#EBEBEB" d="M116.314 96.369s-.118-.192-.322-.577l-.898-1.714-.656-1.266c-.261-.453-.593-.924-.925-1.449l-1.093-1.681c-.366-.617-.9-1.169-1.388-1.812-1.932-2.58-4.784-5.376-8.503-8.03a40.452 40.452 0 0 0-14.087-6.314l-2.13-.48c-.726-.118-1.468-.193-2.213-.293-.75-.073-1.5-.235-2.269-.24l-2.33-.067-1.184-.029-1.192.084-2.42.166c-.81.081-1.618.26-2.437.387-.815.162-1.657.224-2.465.488-1.625.463-3.31.835-4.915 1.538-.81.328-1.648.607-2.452.98l-2.39 1.214c-.398.21-.814.392-1.2.63l-1.148.737c-.763.502-1.556.97-2.308 1.51-1.433 1.17-2.977 2.252-4.285 3.637-1.421 1.268-2.617 2.78-3.878 4.262-.592.77-1.121 1.596-1.69 2.398-.27.41-.582.796-.821 1.23l-.725 1.297c-1.044 1.7-1.784 3.573-2.608 5.427-.631 1.928-1.339 3.854-1.716 5.892l-.344 1.515-.203 1.546-.198 1.553a9.983 9.983 0 0 0-.129 1.566c-.03 1.05-.063 2.105-.095 3.163.07 1.056.143 2.118.214 3.182a43.188 43.188 0 0 0 3.276 12.502 43.227 43.227 0 0 0 7.09 10.813c.742.766 1.482 1.531 2.22 2.291l2.414 2.048.603.505.645.449 1.287.893 1.284.886 1.356.758c1.766 1.085 3.67 1.852 5.526 2.674 1.928.63 3.815 1.336 5.776 1.699l1.45.331c.482.114.978.14 1.463.215.976.114 1.944.275 2.912.351 1.945.056 3.868.182 5.763-.025 1.906-.044 3.743-.464 5.572-.745.903-.197 1.784-.472 2.667-.701l1.317-.359c.435-.128.848-.315 1.27-.47.841-.322 1.675-.643 2.503-.962.815-.347 1.585-.782 2.37-1.164 1.598-.722 3.002-1.724 4.434-2.62.737-.422 1.348-1.005 2.013-1.502.644-.525 1.317-1.004 1.92-1.553l1.744-1.684.861-.829.771-.899 1.511-1.775c.512-.575.894-1.241 1.34-1.846.425-.622.868-1.222 1.266-1.84l1.07-1.903a40.42 40.42 0 0 0 4.746-14.689c.52-4.539.354-8.531-.269-11.692-.152-.791-.203-1.559-.416-2.243l-.517-1.937c-.165-.598-.292-1.159-.454-1.658l-.501-1.334c-.29-.785-.513-1.389-.672-1.815-.143-.404-.208-.62-.208-.62s.098.2.263.605c.17.422.41 1.02.721 1.799l.526 1.329c.171.497.307 1.058.481 1.656l.543 1.938c.221.686.282 1.455.441 2.249.657 3.173.855 7.188.36 11.763a40.563 40.563 0 0 1-4.712 14.834l-1.073 1.926c-.399.627-.843 1.235-1.269 1.864-.449.613-.834 1.285-1.347 1.868l-1.52 1.799-.776.91-.866.842-1.757 1.706c-.608.556-1.286 1.043-1.935 1.575-.67.503-1.288 1.095-2.031 1.525-1.445.91-2.864 1.927-4.477 2.661-.792.388-1.57.829-2.393 1.183l-2.529.979c-.427.157-.846.346-1.284.477l-1.332.367c-.893.234-1.782.514-2.697.715-1.85.29-3.71.717-5.638.764-1.917.212-3.864.089-5.834.035-.98-.076-1.96-.235-2.95-.351-.492-.075-.994-.101-1.48-.215l-1.47-.333c-1.985-.366-3.897-1.076-5.85-1.714-1.88-.83-3.81-1.606-5.6-2.702l-1.374-.769-1.302-.895-1.304-.905-.654-.453-.612-.512-2.447-2.074-2.25-2.321a43.687 43.687 0 0 1-7.183-10.953 43.645 43.645 0 0 1-3.318-12.668l-.215-3.224.098-3.205c-.001-.533.051-1.061.13-1.586l.203-1.573.208-1.566.349-1.535c.384-2.063 1.1-4.015 1.744-5.965.834-1.878 1.587-3.772 2.645-5.493l.737-1.313c.243-.438.558-.828.833-1.244.577-.811 1.114-1.646 1.714-2.426 1.278-1.498 2.492-3.026 3.932-4.307 1.327-1.4 2.89-2.494 4.344-3.674.76-.544 1.564-1.017 2.337-1.524l1.163-.743c.391-.238.812-.423 1.215-.634l2.42-1.223c.814-.375 1.662-.656 2.482-.984 1.624-.706 3.33-1.078 4.974-1.542.816-.264 1.668-.326 2.491-.487.83-.126 1.646-.303 2.466-.382l2.445-.162 1.205-.08 1.194.032 2.354.076c.777.01 1.534.174 2.29.252.753.103 1.503.182 2.234.304l2.149.493a40.576 40.576 0 0 1 14.171 6.436c3.73 2.697 6.579 5.533 8.495 8.147.482.65 1.013 1.21 1.374 1.834l1.076 1.702c.328.531.653 1.007.908 1.467l.636 1.281.852 1.742c.193.395.276.602.276.602Z"/><path fill="#263238" d="m60.233 59.875 3.825 8.603-1.634.728-6.612-3.315 2.322 5.223-1.965.873-3.825-8.603 1.645-.732 6.6 3.32-2.322-5.222 1.966-.875Zm39.352 104.629c-.716.097-1.332.085-1.85-.04l.01-1.799a5.004 5.004 0 0 0 1.605.066 5.378 5.378 0 0 0 1.634-.431c.565-.251.945-.522 1.141-.809.196-.289.232-.572.109-.85a.701.701 0 0 0-.467-.404 1.998 1.998 0 0 0-.759-.052c-.286.029-.664.089-1.134.181a15.09 15.09 0 0 1-1.816.249 2.862 2.862 0 0 1-1.41-.273c-.452-.21-.805-.603-1.06-1.176a2.624 2.624 0 0 1-.2-1.54c.09-.525.356-1.027.795-1.507.439-.48 1.052-.894 1.839-1.244a7.285 7.285 0 0 1 1.697-.52 5.213 5.213 0 0 1 1.629-.046l.059 1.785c-.996-.098-1.891.031-2.686.384-.558.248-.93.521-1.115.82-.187.297-.214.594-.084.889.131.294.383.445.753.452.371.008.903-.06 1.596-.2.725-.137 1.33-.221 1.817-.25.487-.029.956.058 1.403.26.448.203.8.59 1.055 1.164.219.492.28 1.001.187 1.529-.095.528-.363 1.033-.806 1.515-.444.481-1.059.897-1.845 1.247a7.716 7.716 0 0 1-2.097.6Zm22.628-69.175-1.598.71-2.963-6.661 8.602-3.826 2.891 6.502-1.597.71-2.01-4.522-1.868.83 1.777 3.995-1.549.688-1.776-3.993-1.991.885 2.082 4.682Zm-95.551 31.402 9.853-1.011.95 2.139-4.982 4.482 6.695-.637.945 2.127-7.346 6.651-.917-2.065 5.184-4.63-6.95.66-.819-1.843 5.221-4.676-6.986.708-.848-1.905Z"/></g><defs><clipPath id="a"><path fill="#fff" d="M0 0h157v192H0z"/></clipPath></defs></svg>