<svg xmlns="http://www.w3.org/2000/svg" width="108" height="30" fill="none"><mask id="a" width="108" height="30" x="0" y="0" maskUnits="userSpaceOnUse" style="mask-type:luminance"><path fill="#fff" d="M107.5 0H.5v30h107V0Z"/></mask><g mask="url(#a)"><mask id="b" width="108" height="29" x="0" y="0" maskUnits="userSpaceOnUse" style="mask-type:luminance"><path fill="#fff" d="M107.242.977H.5V28.79h106.742V.977Z"/></mask><g fill="#AAA9AD" mask="url(#b)"><path d="M42.288 23.596c-1.695 0-3.124-.241-4.288-.723-1.147-.481-2.011-1.16-2.593-2.038-.582-.894-.873-1.943-.873-3.147v-.154h2.773v.412c0 .688.154 1.264.462 1.729.308.447.822.79 1.54 1.031.72.224 1.712.336 2.979.336 1.096 0 1.969-.078 2.619-.232.65-.172 1.113-.43 1.387-.774.29-.361.436-.809.436-1.342 0-.756-.24-1.307-.719-1.65-.48-.345-1.258-.62-2.336-.826l-4.211-.697c-.959-.189-1.815-.464-2.568-.825-.753-.378-1.344-.877-1.772-1.496-.41-.637-.616-1.428-.616-2.374 0-.619.137-1.23.41-1.831.275-.602.703-1.144 1.285-1.625.581-.482 1.335-.86 2.26-1.136.94-.292 2.088-.438 3.44-.438 1.677 0 3.055.258 4.134.774 1.078.516 1.874 1.22 2.388 2.115.53.877.796 1.883.796 3.018v.155h-2.748v-.335c0-.705-.154-1.29-.462-1.754-.308-.482-.813-.834-1.515-1.058-.702-.24-1.652-.361-2.85-.361-1.044 0-1.892.086-2.542.258-.633.172-1.096.43-1.387.774-.29.326-.436.756-.436 1.29 0 .481.103.877.308 1.186.206.31.522.56.95.748.428.172.976.336 1.643.49l4.186.723c1.147.206 2.097.516 2.85.928.77.413 1.344.938 1.72 1.574.377.636.565 1.376.565 2.219 0 .877-.248 1.702-.744 2.476-.497.774-1.276 1.402-2.337 1.883-1.061.465-2.44.697-4.134.697Zm15.295-.258h-3.44l-3.827-12.821h2.876l2.131 7.274.591 3.302h.206l.95-3.56 2.67-7.016h3.543l2.697 7.017.95 3.56h.205l.59-3.303 2.132-7.274h2.824l-3.877 12.82h-3.44l-2.8-7.377-.975-3.147h-.206l-.975 3.147-2.825 7.378Zm19.28 0H74.09V10.517h2.773v12.82Zm0-14.318H74.09V6.054h2.773V9.02Zm8.602 14.576c-2.054 0-3.646-.396-4.776-1.187-1.113-.791-1.67-1.926-1.67-3.405v-.078h2.774v.207c0 .843.274 1.427.822 1.754.565.31 1.515.465 2.85.465 1.25 0 2.097-.13 2.542-.387.462-.276.693-.697.693-1.264 0-.534-.18-.912-.54-1.136-.342-.223-.975-.395-1.9-.516l-3.491-.464c-1.216-.155-2.166-.499-2.85-1.032-.685-.55-1.028-1.367-1.028-2.45 0-.757.223-1.42.668-1.987.445-.585 1.113-1.04 2.003-1.367.89-.327 1.986-.49 3.287-.49 1.3 0 2.413.172 3.338.516.941.344 1.66.86 2.156 1.547.514.689.77 1.54.77 2.554v.078h-2.747v-.155c0-.499-.102-.92-.308-1.264-.205-.344-.573-.602-1.104-.774-.513-.19-1.24-.284-2.182-.284-1.182 0-2.003.138-2.465.413-.463.275-.694.714-.694 1.316 0 .498.172.86.514 1.083.342.224.984.404 1.926.542l2.953.413c1.506.189 2.618.559 3.337 1.109.72.55 1.079 1.359 1.079 2.425a3.09 3.09 0 0 1-.745 2.064c-.496.567-1.19 1.006-2.08 1.315-.89.293-1.934.439-3.132.439Zm13.992 0c-2.054 0-3.646-.396-4.776-1.187-1.113-.791-1.67-1.926-1.67-3.405v-.078h2.774v.207c0 .843.274 1.427.822 1.754.564.31 1.515.465 2.85.465 1.25 0 2.097-.13 2.542-.387.462-.276.693-.697.693-1.264 0-.534-.18-.912-.539-1.136-.342-.223-.976-.395-1.9-.516l-3.492-.464c-1.215-.155-2.166-.499-2.85-1.032-.685-.55-1.027-1.367-1.027-2.45 0-.757.222-1.42.667-1.987.445-.585 1.113-1.04 2.003-1.367.89-.327 1.986-.49 3.287-.49 1.3 0 2.413.172 3.337.516.942.344 1.661.86 2.158 1.547.513.689.77 1.54.77 2.554v.078h-2.748v-.155c0-.499-.102-.92-.308-1.264-.205-.344-.573-.602-1.104-.774-.513-.19-1.241-.284-2.182-.284-1.182 0-2.003.138-2.466.413-.462.275-.693.714-.693 1.316 0 .498.171.86.514 1.083.342.224.984.404 1.925.542l2.954.413c1.506.189 2.619.559 3.338 1.109.718.55 1.078 1.359 1.078 2.425 0 .791-.248 1.479-.745 2.064-.496.567-1.189 1.006-2.08 1.315-.89.293-1.934.439-3.132.439ZM17.122.977H11.38v10.928l5.743-5.464V.977ZM.5 17.675v-5.77h10.877l-5.438 5.77H.5Zm27.498-5.77v5.77H17.121l5.439-5.77h5.438Z"/><path d="M17.144 11.882h-5.788v16.721h5.788v-16.72Z"/></g></g></svg>