<svg xmlns="http://www.w3.org/2000/svg" width="138" height="30" fill="none"><g clip-path="url(#a)"><mask id="b" width="138" height="30" x="0" y="0" maskUnits="userSpaceOnUse" style="mask-type:luminance"><path fill="#fff" d="M138 0H0v30h138V0Z"/></mask><g mask="url(#b)"><mask id="c" width="138" height="30" x="0" y="0" maskUnits="userSpaceOnUse" style="mask-type:luminance"><path fill="#fff" d="M138 0H0v30h138V0Z"/></mask><g mask="url(#c)"><mask id="d" width="138" height="30" x="0" y="0" maskUnits="userSpaceOnUse" style="mask-type:luminance"><path fill="#fff" d="M138 0H0v30h138V0Z"/></mask><g fill="#AAA9AD" mask="url(#d)"><path d="M134.205 30c-1.112 0-2.027-.322-2.744-.964a3.27 3.27 0 0 1-1.038-2.448c0-.989.346-1.817 1.038-2.484.717-.668 1.632-1.002 2.744-1.002 1.088 0 1.978.334 2.67 1.002.717.667 1.075 1.495 1.075 2.484 0 .964-.358 1.78-1.075 2.448-.692.642-1.582.964-2.67.964Zm-29.397-10.68c0-2.126.395-3.992 1.186-5.599.816-1.607 1.916-2.843 3.301-3.708 1.384-.866 2.929-1.298 4.635-1.298 1.459 0 2.732.296 3.82.89 1.112.593 1.965 1.372 2.558 2.336v-2.93h6.341v20.693h-6.341v-2.93c-.618.964-1.483 1.743-2.595 2.336-1.088.594-2.361.89-3.82.89-1.681 0-3.214-.432-4.598-1.298-1.385-.89-2.485-2.138-3.301-3.745-.791-1.632-1.186-3.51-1.186-5.637Zm15.5.038c0-1.583-.445-2.831-1.335-3.746-.865-.915-1.928-1.372-3.189-1.372-1.261 0-2.336.457-3.226 1.372-.865.89-1.298 2.126-1.298 3.708 0 1.583.433 2.843 1.298 3.783.89.915 1.965 1.372 3.226 1.372s2.324-.457 3.189-1.372c.89-.915 1.335-2.163 1.335-3.745ZM101.474 2.262v27.44h-6.34V2.263h6.34ZM87.386 6.86c-1.113 0-2.027-.321-2.744-.964a3.27 3.27 0 0 1-1.038-2.447c0-.99.346-1.805 1.038-2.448C85.359.334 86.273 0 87.386 0c1.088 0 1.978.334 2.67 1.001.717.643 1.076 1.459 1.076 2.448 0 .964-.359 1.78-1.076 2.447-.692.643-1.582.964-2.67.964Zm3.152 2.151v20.692h-6.34V9.011h6.34Zm-18.72-.223c2.423 0 4.351.791 5.785 2.373 1.459 1.558 2.188 3.709 2.188 6.453v12.089h-6.304V18.467c0-1.385-.358-2.46-1.075-3.226-.717-.767-1.681-1.15-2.893-1.15-1.211 0-2.175.383-2.892 1.15-.717.766-1.076 1.841-1.076 3.226v11.236h-6.34V9.01h6.34v2.744c.643-.915 1.509-1.632 2.596-2.151 1.088-.544 2.312-.816 3.671-.816ZM32.78 19.32c0-2.126.395-3.992 1.187-5.599.815-1.607 1.916-2.843 3.3-3.708 1.384-.866 2.93-1.298 4.635-1.298 1.459 0 2.732.296 3.82.89 1.112.593 1.965 1.372 2.559 2.336v-2.93h6.34v20.693h-6.34v-2.93c-.619.964-1.484 1.743-2.596 2.336-1.088.594-2.361.89-3.82.89-1.681 0-3.214-.432-4.598-1.298-1.385-.89-2.485-2.138-3.3-3.745-.792-1.632-1.187-3.51-1.187-5.637Zm15.5.038c0-1.583-.444-2.831-1.334-3.746-.866-.915-1.929-1.372-3.19-1.372-1.26 0-2.336.457-3.226 1.372-.865.89-1.298 2.126-1.298 3.708 0 1.583.433 2.843 1.298 3.783.89.915 1.965 1.372 3.226 1.372s2.324-.457 3.19-1.372c.89-.915 1.335-2.163 1.335-3.745ZM29.48 3.67v26.032h-6.34V14.091l-5.822 15.612H12.2l-5.859-15.65v15.65H0V3.67h7.49l7.306 18.023L22.027 3.67h7.454Z"/></g></g></g></g><defs><clipPath id="a"><path fill="#fff" d="M0 0h138v30H0z"/></clipPath></defs></svg>