<svg xmlns="http://www.w3.org/2000/svg" width="161" height="30" fill="none"><path fill="#AAA9AD" d="M44.507 25.359c-1.4 0-2.651-.34-3.752-1.02-1.1-.681-1.97-1.612-2.611-2.792-.64-1.181-.96-2.522-.96-4.023 0-1.5.32-2.831.96-3.992.64-1.18 1.51-2.101 2.611-2.761 1.1-.68 2.351-1.021 3.752-1.021 1.121 0 2.101.21 2.942.63.84.42 1.521 1.01 2.041 1.771V4.436h3.842v20.562H49.91l-.42-2.13c-.48.66-1.12 1.24-1.92 1.74-.781.5-1.802.75-3.063.75Zm.81-3.362c1.242 0 2.252-.41 3.032-1.23.8-.841 1.201-1.912 1.201-3.213 0-1.3-.4-2.361-1.2-3.181-.78-.841-1.791-1.261-3.032-1.261-1.22 0-2.231.41-3.032 1.23-.8.82-1.2 1.882-1.2 3.182 0 1.301.4 2.372 1.2 3.212.8.84 1.811 1.26 3.032 1.26Zm17.963 3.361c-1.5 0-2.83-.32-3.992-.96a6.95 6.95 0 0 1-2.731-2.702c-.66-1.16-.991-2.501-.991-4.022 0-1.54.32-2.912.96-4.112.661-1.201 1.561-2.131 2.702-2.792 1.161-.68 2.522-1.02 4.083-1.02 1.46 0 2.75.32 3.872.96a6.761 6.761 0 0 1 2.611 2.641c.64 1.101.96 2.332.96 3.693 0 .22-.01.45-.03.69 0 .24-.01.49-.03.75H59.379c.08 1.161.48 2.072 1.201 2.732.74.66 1.631.99 2.672.99.78 0 1.43-.17 1.95-.51.54-.36.941-.82 1.202-1.38h3.902c-.28.94-.751 1.8-1.411 2.58a6.776 6.776 0 0 1-2.401 1.802c-.941.44-2.012.66-3.213.66Zm.03-12.487c-.94 0-1.77.27-2.49.81-.721.521-1.181 1.322-1.382 2.402h7.415c-.06-.98-.42-1.76-1.08-2.341-.661-.58-1.482-.87-2.462-.87Zm9.478 12.127V10.11h3.392l.3 2.521c.46-.88 1.12-1.58 1.981-2.101.88-.52 1.911-.78 3.092-.78 1.84 0 3.272.58 4.292 1.74 1.02 1.161 1.531 2.862 1.531 5.103v8.405h-3.842v-8.044c0-1.281-.26-2.262-.78-2.942-.52-.68-1.331-1.02-2.432-1.02-1.08 0-1.971.38-2.672 1.14-.68.76-1.02 1.821-1.02 3.182v7.684h-3.842Zm18.262 0V10.11h3.392l.33 2.01c.48-.72 1.11-1.29 1.891-1.71.8-.44 1.721-.66 2.762-.66 2.301 0 3.932.89 4.893 2.671a5.815 5.815 0 0 1 2.161-1.951 6.394 6.394 0 0 1 3.002-.72c1.941 0 3.432.58 4.472 1.74 1.041 1.161 1.561 2.862 1.561 5.103v8.405h-3.842v-8.044c0-1.281-.25-2.262-.75-2.942-.481-.68-1.231-1.02-2.252-1.02-1.041 0-1.881.38-2.521 1.14-.621.76-.931 1.821-.931 3.182v7.684h-3.842v-8.044c0-1.281-.25-2.262-.75-2.942-.5-.68-1.271-1.02-2.312-1.02-1.02 0-1.85.38-2.49 1.14-.621.76-.931 1.821-.931 3.182v7.684H91.05Zm32.046.36c-1.28 0-2.331-.2-3.152-.6-.82-.42-1.43-.97-1.83-1.651a4.352 4.352 0 0 1-.601-2.251c0-1.381.541-2.502 1.621-3.362 1.081-.86 2.702-1.29 4.863-1.29h3.782v-.361c0-1.02-.29-1.771-.87-2.251-.581-.48-1.301-.72-2.162-.72-.78 0-1.46.19-2.041.57-.58.36-.94.9-1.08 1.62h-3.752c.099-1.08.46-2.02 1.08-2.821.641-.8 1.461-1.41 2.462-1.831 1-.44 2.121-.66 3.361-.66 2.121 0 3.792.53 5.013 1.59 1.221 1.061 1.831 2.562 1.831 4.503v9.155h-3.272l-.36-2.401c-.44.8-1.06 1.46-1.861 1.98-.78.521-1.791.781-3.032.781Zm.871-3.001c1.101 0 1.951-.36 2.551-1.081.621-.72 1.011-1.61 1.171-2.671h-3.272c-1.02 0-1.751.19-2.191.57-.44.36-.66.81-.66 1.35 0 .58.22 1.031.66 1.351.44.32 1.02.48 1.741.48Zm11.32 2.641V10.11h3.423l.36 2.791a6.153 6.153 0 0 1 2.191-2.281c.94-.58 2.041-.87 3.302-.87v4.052h-1.081c-.84 0-1.591.13-2.251.39-.66.26-1.181.71-1.561 1.35-.36.641-.54 1.532-.54 2.672v6.784h-3.843Zm10.704 0V4.436h3.842v11.707l5.283-6.033h4.562l-6.093 6.784 7.084 8.104h-4.803l-6.033-7.474v7.474h-3.842ZM21.744 0H6.598v4.788h15.146a3.909 3.909 0 0 1 3.91 3.909v12.606a3.909 3.909 0 0 1-3.91 3.909H6.598V30h15.146a8.697 8.697 0 0 0 8.697-8.697V8.697A8.697 8.697 0 0 0 21.744 0Z"/><path fill="#AAA9AD" d="m21.06 9.456-3.393-3.378-10.97 11.016-3.304-3.319L0 17.154l6.698 6.726L21.06 9.456Z"/></svg>