<svg xmlns="http://www.w3.org/2000/svg" width="30" height="30" fill="none"><path fill="#fff" fill-rule="evenodd" d="M0 1.844c0 1.018.882 1.844 1.97 1.844h16.319c1.86 0 3.392.537 4.595 1.613 1.203 1.075 1.805 2.458 1.805 4.148 0 1.563-.602 2.843-1.805 3.842-1.203.973-2.735 1.46-4.595 1.46h-7.092c-1.088 0-1.97.825-1.97 1.843s.882 1.844 1.97 1.844h7.831l7.056 10.602c.438.64 1.053.96 1.846.96.875 0 1.49-.32 1.846-.96.356-.666.288-1.37-.205-2.113l-6.277-9.45c1.696-.716 3.036-1.766 4.02-3.15.985-1.408 1.478-3.034 1.478-4.878 0-1.869-.452-3.508-1.354-4.916-.875-1.409-2.106-2.51-3.692-3.304C22.159.41 20.34 0 18.289 0H1.97C.882 0 0 .825 0 1.844Z" clip-rule="evenodd"/></svg>