<svg xmlns="http://www.w3.org/2000/svg" width="127" height="30" fill="none"><g clip-path="url(#a)"><mask id="b" width="127" height="30" x="0" y="0" maskUnits="userSpaceOnUse" style="mask-type:luminance"><path fill="#fff" d="M127 0H0v30h127V0Z"/></mask><g mask="url(#b)"><mask id="c" width="127" height="30" x="0" y="0" maskUnits="userSpaceOnUse" style="mask-type:luminance"><path fill="#fff" d="M127 0H0v30h127V0Z"/></mask><g mask="url(#c)"><mask id="d" width="127" height="30" x="0" y="0" maskUnits="userSpaceOnUse" style="mask-type:luminance"><path fill="#fff" d="M126.5 0H.5v30h126V0Z"/></mask><g fill="#AAA9AD" mask="url(#d)"><path d="M43.663 27.657c-2.916 0-5.191-.807-6.824-2.421-1.614-1.614-2.421-3.918-2.421-6.912V6.892h4.725v11.257c0 3.655 1.516 5.483 4.55 5.483 1.477 0 2.605-.438 3.382-1.313.778-.894 1.167-2.284 1.167-4.17V6.892h4.666v11.432c0 2.994-.816 5.298-2.45 6.912-1.613 1.614-3.878 2.42-6.795 2.42Zm11.552-10.384h8.254v3.646h-8.254v-3.646Zm13.869-6.532H62.55v-3.85h17.79v3.85h-6.533v16.566h-4.724V10.74Zm27.486.874v15.69h-4.316V25.44a6.195 6.195 0 0 1-2.158 1.575c-.836.35-1.74.525-2.713.525-2.06 0-3.694-.593-4.899-1.779s-1.808-2.946-1.808-5.279v-8.866h4.55v8.195c0 2.528 1.06 3.792 3.178 3.792 1.09 0 1.964-.35 2.625-1.05.661-.72.992-1.78.992-3.179v-7.758h4.55Zm7.104 2.072c.544-.758 1.273-1.332 2.187-1.72.933-.39 2.002-.584 3.208-.584v4.2a16.507 16.507 0 0 0-1.021-.059c-1.303 0-2.323.37-3.062 1.108-.739.72-1.108 1.809-1.108 3.267v7.408h-4.55v-15.69h4.346v2.07Zm16.179-2.304c1.945 0 3.51.583 4.696 1.75 1.206 1.166 1.808 2.897 1.808 5.19v8.984h-4.55v-8.283c0-1.244-.272-2.168-.816-2.77-.545-.623-1.332-.934-2.363-.934-1.147 0-2.06.36-2.741 1.08-.681.699-1.021 1.749-1.021 3.149v7.758h-4.55v-15.69h4.346v1.836a5.9 5.9 0 0 1 2.246-1.516c.894-.37 1.876-.554 2.945-.554Z"/><path fill-rule="evenodd" d="M14.093 1.585a1.987 1.987 0 0 1 2.81 0l7.266 7.266-7.3 6.967a1.987 1.987 0 1 1-2.743-2.874l2.241-2.14h-4.842a7.02 7.02 0 1 0 0 14.04h9.8a1.987 1.987 0 0 1 0 3.974h-9.8C5.453 28.818.53 23.896.53 17.825c0-6.072 4.922-10.994 10.994-10.994h5.004l-2.436-2.436a1.987 1.987 0 0 1 0-2.81Z" clip-rule="evenodd"/></g></g></g></g><defs><clipPath id="a"><path fill="#fff" d="M0 0h127v30H0z"/></clipPath></defs></svg>