<svg xmlns="http://www.w3.org/2000/svg" width="136" height="30" fill="none"><path fill="#AAA9AD" fill-rule="evenodd" d="M4.962 7.55A12.482 12.482 0 0 1 15 2.5c4.136 0 7.802 2.009 10.078 5.104-.097.1-.185.202-.265.306-.417.54-.73 1.235-.982 1.94-.505 1.42-.891 3.275-1.249 5.012l-.032.156c-.356 1.734-.687 3.346-1.088 4.543-.18.538-.35.918-.502 1.161-.158-.245-.337-.63-.527-1.175-.428-1.232-.789-2.906-1.17-4.695l-.013-.058c-.367-1.718-.757-3.54-1.242-4.935-.244-.7-.544-1.389-.935-1.924-.384-.524-1.024-1.117-1.96-1.117-.929 0-1.571.586-1.961 1.105-.4.531-.71 1.217-.967 1.918-.516 1.412-.938 3.258-1.33 4.997l-.041.18c-.389 1.723-.752 3.334-1.165 4.533a7.229 7.229 0 0 1-.44 1.055 7.235 7.235 0 0 1-.43-1.048c-.396-1.174-.743-2.74-1.116-4.42l-.065-.295c-.386-1.74-.804-3.59-1.328-5.006-.26-.704-.578-1.393-.99-1.927a3.584 3.584 0 0 0-.318-.36ZM3.583 9.902c.109.215.224.48.342.801.453 1.226.837 2.899 1.232 4.681l.077.348c.36 1.626.735 3.318 1.176 4.625.234.695.517 1.376.882 1.905.344.5.962 1.147 1.913 1.147.947 0 1.567-.643 1.913-1.141.368-.528.656-1.208.895-1.904.459-1.333.85-3.065 1.223-4.722l.057-.253c.403-1.784.79-3.46 1.24-4.69.209-.57.404-.967.574-1.213.16.244.345.635.54 1.195.428 1.231.788 2.906 1.17 4.694l.013.059c.367 1.717.756 3.54 1.242 4.934.244.701.543 1.39.935 1.924.384.525 1.023 1.117 1.959 1.117.94 0 1.577-.597 1.957-1.127.386-.537.675-1.228.91-1.928.45-1.344.808-3.088 1.149-4.747l.049-.241c.367-1.787.72-3.454 1.155-4.677a7.89 7.89 0 0 1 .276-.683A12.455 12.455 0 0 1 27.5 15c0 6.904-5.596 12.5-12.5 12.5S2.5 21.904 2.5 15c0-1.816.387-3.54 1.083-5.098ZM15 0C6.716 0 0 6.716 0 15c0 8.284 6.716 15 15 15 8.285 0 15-6.716 15-15 0-8.284-6.715-15-15-15Zm.286 9.276-.009.007a.034.034 0 0 1 .009-.007Zm-.346.002a.037.037 0 0 1-.008-.006l.008.006Zm5.836 11.681.008-.006a.04.04 0 0 1-.008.006Zm.363-.01a.04.04 0 0 1 .01.006s-.004-.001-.01-.006Zm-12.19.033.01-.01a.055.055 0 0 1-.01.01Zm.506-.007c.007.005.01.009.01.01l-.01-.01Z" clip-rule="evenodd"/><path fill="#AAA9AD" d="m38.283 23.88-3.638-12.442h3.186l2.157 8.955 2.509-8.955h3.562l2.509 8.955 2.182-8.955h3.186l-3.662 12.443h-3.337l-2.66-9.307-2.658 9.307h-3.336Zm20.327.301c-1.07 0-1.947-.167-2.633-.502-.685-.35-1.196-.81-1.53-1.38a3.642 3.642 0 0 1-.502-1.88c0-1.154.452-2.091 1.355-2.81.903-.72 2.258-1.079 4.064-1.079h3.16v-.3c0-.854-.242-1.481-.727-1.882-.485-.402-1.087-.602-1.806-.602-.652 0-1.221.159-1.706.476-.485.301-.786.753-.903 1.355h-3.136c.084-.903.385-1.69.903-2.358a5.123 5.123 0 0 1 2.057-1.53c.837-.368 1.773-.552 2.81-.552 1.773 0 3.169.443 4.19 1.33 1.02.886 1.53 2.14 1.53 3.762v7.651H63l-.3-2.006a4.606 4.606 0 0 1-1.556 1.655c-.653.435-1.497.652-2.534.652Zm.729-2.508c.92 0 1.63-.302 2.132-.903.518-.602.844-1.347.978-2.233h-2.734c-.853 0-1.463.159-1.832.477-.367.3-.552.677-.552 1.128 0 .485.185.862.552 1.13.369.267.853.4 1.456.4ZM70.79 23.88l-4.565-12.442h3.36l3.162 9.407 3.16-9.407h3.362l-4.59 12.443H70.79Zm14.934.301c-1.254 0-2.366-.268-3.337-.803a5.814 5.814 0 0 1-2.282-2.257c-.552-.97-.828-2.09-.828-3.362 0-1.287.268-2.433.803-3.436.552-1.004 1.304-1.782 2.258-2.333.97-.569 2.107-.853 3.411-.853 1.221 0 2.3.267 3.236.802a5.652 5.652 0 0 1 2.183 2.208c.535.92.802 1.948.802 3.086 0 .183-.008.376-.025.576 0 .201-.008.41-.025.628h-9.457c.067.97.402 1.73 1.003 2.283.619.551 1.363.827 2.233.827.652 0 1.196-.142 1.63-.426a2.779 2.779 0 0 0 1.004-1.154h3.261a5.94 5.94 0 0 1-1.179 2.157 5.676 5.676 0 0 1-2.007 1.505c-.786.368-1.68.552-2.684.552Zm.025-10.435c-.786 0-1.48.225-2.082.677-.602.435-.987 1.104-1.154 2.007h6.196c-.05-.82-.35-1.472-.903-1.957-.552-.485-1.237-.727-2.057-.727Zm7.919 10.134V5.82h3.21v18.06h-3.21Zm11.533.301c-1.254 0-2.366-.268-3.336-.803a5.808 5.808 0 0 1-2.283-2.257c-.552-.97-.827-2.09-.827-3.362 0-1.287.267-2.433.802-3.436.552-1.004 1.305-1.782 2.258-2.333.97-.569 2.107-.853 3.412-.853 1.221 0 2.299.267 3.236.802a5.65 5.65 0 0 1 2.182 2.208c.535.92.803 1.948.803 3.086 0 .183-.008.376-.025.576 0 .201-.009.41-.025.628h-9.457c.067.97.401 1.73 1.003 2.283.618.551 1.363.827 2.233.827.652 0 1.195-.142 1.63-.426a2.77 2.77 0 0 0 1.003-1.154h3.262a5.948 5.948 0 0 1-1.179 2.157 5.689 5.689 0 0 1-2.007 1.505c-.786.368-1.681.552-2.685.552Zm.026-10.435c-.786 0-1.48.225-2.083.677-.601.435-.986 1.104-1.154 2.007h6.197c-.051-.82-.351-1.472-.903-1.957-.552-.485-1.238-.727-2.057-.727Zm13.061 10.435c-1.104 0-2.074-.175-2.91-.527-.837-.368-1.506-.87-2.007-1.505a4.314 4.314 0 0 1-.903-2.207h3.236c.1.485.368.903.803 1.254.451.334 1.028.502 1.73.502.703 0 1.213-.142 1.531-.427.334-.284.501-.61.501-.978 0-.535-.234-.895-.702-1.079-.468-.2-1.121-.393-1.957-.577a21.384 21.384 0 0 1-1.63-.426 8.362 8.362 0 0 1-1.53-.627 3.54 3.54 0 0 1-1.104-1.004c-.285-.418-.427-.928-.427-1.53 0-1.104.435-2.032 1.305-2.784.886-.753 2.124-1.13 3.713-1.13 1.471 0 2.642.344 3.511 1.03.887.685 1.414 1.63 1.581 2.834h-3.035c-.185-.92-.879-1.38-2.083-1.38-.602 0-1.07.117-1.404.351-.318.235-.477.527-.477.878 0 .368.242.66.727.878.485.218 1.129.418 1.932.602.869.201 1.664.427 2.383.678.736.234 1.321.593 1.756 1.078.435.469.652 1.146.652 2.032a3.492 3.492 0 0 1-.602 2.082c-.418.619-1.02 1.104-1.806 1.455-.786.352-1.714.527-2.784.527Zm12.176 0c-1.104 0-2.074-.175-2.91-.527-.836-.368-1.505-.87-2.007-1.505a4.322 4.322 0 0 1-.903-2.207h3.236c.101.485.368.903.803 1.254.451.334 1.028.502 1.731.502.702 0 1.212-.142 1.53-.427.334-.284.502-.61.502-.978 0-.535-.234-.895-.703-1.079-.468-.2-1.12-.393-1.956-.577a21.285 21.285 0 0 1-1.631-.426 8.362 8.362 0 0 1-1.53-.627 3.54 3.54 0 0 1-1.104-1.004c-.284-.418-.426-.928-.426-1.53 0-1.104.435-2.032 1.304-2.784.886-.753 2.124-1.13 3.713-1.13 1.471 0 2.642.344 3.512 1.03.886.685 1.413 1.63 1.58 2.834h-3.035c-.184-.92-.878-1.38-2.082-1.38-.602 0-1.071.117-1.405.351-.318.235-.477.527-.477.878 0 .368.243.66.728.878.485.218 1.128.418 1.931.602.87.201 1.664.427 2.384.678.735.234 1.321.593 1.755 1.078.435.469.653 1.146.653 2.032a3.5 3.5 0 0 1-.602 2.082c-.419.619-1.021 1.104-1.806 1.455-.787.352-1.715.527-2.785.527Z"/></svg>