<svg xmlns="http://www.w3.org/2000/svg" width="218" height="164" fill="none"><g clip-path="url(#a)"><path fill="#F5F5F5" stroke="#05080C" stroke-linecap="round" stroke-linejoin="round" stroke-miterlimit="10" stroke-width="2.697" d="m119.883 153.011-13.896-42.988v-2.854h-14.09v2.854l-13.9 42.988h41.886Z"/><path fill="#05080C" stroke="#05080C" stroke-linecap="round" stroke-linejoin="round" stroke-miterlimit="10" stroke-width="2.697" d="M195.879 117.933c0 6.028-4.888 10.914-10.913 10.914H12.914C6.888 128.847 2 123.961 2 117.933V12.913C2 6.887 6.888 2 12.914 2h172.052c6.025 0 10.913 4.887 10.913 10.913v105.02Z"/><path fill="#fff" stroke="#05080C" stroke-linecap="round" stroke-linejoin="round" stroke-miterlimit="10" stroke-width="2.697" d="M195.879 107.169V12.913C195.879 6.887 190.991 2 184.966 2H12.914C6.888 2 2 6.887 2 12.913v94.256h193.879Z"/><path stroke="#F5F5F5" stroke-linecap="round" stroke-linejoin="round" stroke-miterlimit="10" stroke-width="2.697" d="M63.438 117.055h71.008"/><path fill="#F5F5F5" stroke="#05080C" stroke-linecap="round" stroke-linejoin="round" stroke-miterlimit="10" stroke-width="2.697" d="M135.749 157.507a4.494 4.494 0 0 1-4.494 4.493H66.628a4.495 4.495 0 1 1 0-8.988h64.627a4.492 4.492 0 0 1 4.494 4.495Z"/><path stroke="#05080C" stroke-linecap="round" stroke-linejoin="round" stroke-miterlimit="10" stroke-width="1.332" d="M72.32 39.905h54.754"/><path fill="#05080C" d="M128.845 39.757a1.887 1.887 0 1 1-3.773 0 1.887 1.887 0 0 1 3.773 0Zm-54.518 0a1.887 1.887 0 1 1-3.773 0 1.887 1.887 0 0 1 3.773 0Z"/><path stroke="#05080C" stroke-linecap="round" stroke-linejoin="round" stroke-miterlimit="10" stroke-width="1.332" d="M72.32 67.283c0-15.12 12.257-27.377 27.377-27.377s27.376 12.257 27.376 27.377"/><path fill="#05080C" d="M75.576 67.542h-6.51v6.511h6.51v-6.511Zm54.756 0h-6.513v6.511h6.513v-6.511Z"/><path fill="#fff" stroke="#05080C" stroke-linecap="round" stroke-linejoin="round" stroke-miterlimit="10" stroke-width="1.332" d="M102.955 36.65h-6.512v6.512h6.512V36.65Z"/><path fill="#05080C" stroke="#05080C" stroke-linecap="round" stroke-linejoin="round" stroke-miterlimit="10" stroke-width="1.73" d="M216.553 153.128a4.24 4.24 0 0 1-4.241 4.241h-58.526a4.24 4.24 0 0 1-4.241-4.241V72.189a4.24 4.24 0 0 1 4.241-4.24h58.526a4.24 4.24 0 0 1 4.241 4.24v80.939Z"/><path fill="#fff" stroke="#05080C" stroke-linecap="round" stroke-linejoin="round" stroke-miterlimit="10" stroke-width="1.73" d="M216.553 73.82h-67.008v75.125h67.008V73.819Z"/><path fill="#05080C" d="M192.105 115.854a1.135 1.135 0 0 1-1.083-1.445c.065-.225.198-.425.38-.571l6.887-5.415-6.796-5.369a1.143 1.143 0 0 1-.423-.757 1.12 1.12 0 0 1 .236-.834 1.128 1.128 0 0 1 1.198-.388c.143.04.277.108.393.201l7.93 6.252a1.128 1.128 0 0 1 .438.895 1.13 1.13 0 0 1-.438.895l-8.031 6.264a1.131 1.131 0 0 1-.691.272Zm-13.005 1.688a1.138 1.138 0 0 1-.691-.238l-8.337-6.513a1.137 1.137 0 0 1-.407-.895 1.14 1.14 0 0 1 .441-.884l8.269-6.513a1.142 1.142 0 0 1 1.798.589 1.146 1.146 0 0 1-.393 1.201l-7.148 5.663 7.205 5.664a1.136 1.136 0 0 1-.05 1.805c-.191.136-.419.21-.653.211l-.034-.09Zm3.093 6.739h-.249a1.126 1.126 0 0 1-.714-.5 1.136 1.136 0 0 1-.147-.859l6.706-29.474a1.12 1.12 0 0 1 .489-.724 1.138 1.138 0 0 1 .859-.16 1.128 1.128 0 0 1 .863.917c.025.147.02.297-.014.443l-6.728 29.474a1.132 1.132 0 0 1-1.065.883Z"/><path stroke="#F5F5F5" stroke-linecap="round" stroke-linejoin="round" stroke-miterlimit="10" stroke-width="1.73" d="M175.626 152.787h14.845m-8.529-81.994h2.796"/></g><defs><clipPath id="a"><path fill="#fff" d="M0 0h218v164H0z"/></clipPath></defs></svg>