<svg xmlns="http://www.w3.org/2000/svg" width="175" height="30" fill="none"><path fill="#AAA9AD" d="M56.277 4.041v24.89H53.26V18.107h-13.5v10.824h-3.018V4.04h3.017v11.125h13.5V4.04h3.018ZM68.08 9.698c4.3 0 7.807 2.036 7.807 6.41v13.124l-3.017.038v-2.79c-1.395 1.772-4.299 2.828-6.713 2.828-3.921 0-6.787-1.66-6.787-5.054 0-2.64 1.885-4.638 4.827-5.543 2.187-.679 4.563-.98 8.673-1.056v-1.17c0-2.488-1.96-4.147-4.79-4.147-2.865 0-5.128 1.206-6.146 3.582l-2.225-1.62c.98-2.791 3.96-4.601 8.372-4.601Zm-5.694 14.556c0 1.584 1.773 2.527 3.922 2.527 3.017 0 6.562-1.697 6.562-4.186v-2.527c-3.847.151-5.958.453-7.73.943-1.584.453-2.754 1.584-2.754 3.243Zm39.097-14.556c3.621 0 7.203 2.187 7.203 7.165V28.93h-3.017V17.165c0-3.432-1.961-4.827-4.45-4.827-2.941 0-5.581 2.225-5.581 6.26V28.93H92.62V17.165c0-3.432-1.961-4.827-4.45-4.827s-5.581 1.847-5.581 6.524V28.93h-3.017V10.075h2.64l.188 2.941c1.358-2.3 3.696-3.318 6.034-3.318 2.64 0 5.242 1.169 6.486 3.695 1.17-2.564 4.186-3.695 6.562-3.695Zm12.278-3.092a2.27 2.27 0 0 1-2.263-2.263 2.27 2.27 0 0 1 2.263-2.262 2.27 2.27 0 0 1 2.263 2.262 2.27 2.27 0 0 1-2.263 2.263Zm-1.509 22.325V10.075h3.017v18.856h-3.017Zm6.789-27.53h2.979v27.53h-2.979V1.4Zm10.709 22.325c0 1.848 1.056 2.829 2.715 2.829 1.358 0 2.414-.717 3.394-1.282l.981 2.338c-1.169 1.055-2.791 1.697-4.865 1.697-2.791 0-5.242-1.396-5.242-5.054V12.677h-3.771v-2.602h3.771V4.72h3.017v5.355h6.977v2.602h-6.977v11.05Zm7.08-4.148c0-5.506 4.412-9.918 9.805-9.918 5.392 0 9.805 4.412 9.805 9.918 0 5.468-4.413 9.654-9.805 9.654-5.393 0-9.805-4.186-9.805-9.654Zm3.017-.075c0 3.884 2.979 6.826 6.788 6.826s6.788-2.942 6.788-6.826c0-3.884-2.979-7.052-6.788-7.052s-6.788 3.168-6.788 7.052Zm27.079-9.805c4.035 0 7.354 2.3 7.354 7.165V28.93h-3.017V17.919c0-4.186-2.036-5.581-4.638-5.581-2.753 0-5.846 1.734-5.846 6.561v10.032h-3.017V10.075h2.64l.189 2.941c1.32-2.375 3.733-3.318 6.335-3.318Zm-153.552.138V0h3.472v9.836h-3.472Z"/><path fill="#AAA9AD" d="M12.377 16.399 0 11.448l1.29-3.223 13.82 5.528 13.82-5.528 1.29 3.223-12.317 4.927 8.989 11.485L24.158 30l-9.009-11.51-8.48 11.472-2.791-2.064 8.5-11.5Z"/></svg>