<svg xmlns="http://www.w3.org/2000/svg" width="50" height="50" fill="none"><path fill="#AAA9AD" fill-rule="evenodd" d="M4.688 22.5c0-7.421 0-11.132 1.89-13.733a9.895 9.895 0 0 1 2.189-2.19c2.601-1.89 6.312-1.89 13.733-1.89h5c7.421 0 11.132 0 13.733 1.89.84.61 1.58 1.35 2.19 2.19 1.89 2.601 1.89 6.312 1.89 13.733v5c0 7.421 0 11.132-1.89 13.733a9.892 9.892 0 0 1-2.19 2.19c-2.6 1.89-6.312 1.89-13.733 1.89h-5c-7.421 0-11.132 0-13.733-1.89a9.894 9.894 0 0 1-2.19-2.19c-1.89-2.6-1.89-6.312-1.89-13.733v-5Zm10.937-2.188c.863 0 1.563.7 1.563 1.563v12.5a1.563 1.563 0 0 1-3.125 0v-12.5c0-.863.7-1.563 1.562-1.563Zm7.292 0c.863 0 1.562.7 1.562 1.563v.471a8.689 8.689 0 0 1 5.6-2.034 5.86 5.86 0 0 1 5.858 5.86v8.203a1.563 1.563 0 0 1-3.124 0v-8.203a2.734 2.734 0 0 0-2.735-2.735 5.599 5.599 0 0 0-5.599 5.6v5.338a1.563 1.563 0 0 1-3.125 0v-12.5c0-.863.7-1.563 1.563-1.563Zm-7.292-2.604a2.083 2.083 0 1 0 0-4.166 2.083 2.083 0 0 0 0 4.166Z" clip-rule="evenodd"/></svg>