<svg xmlns="http://www.w3.org/2000/svg" width="161" height="30" fill="none"><path fill="#AAA9AD" d="M151.131 28.32c-1.779 0-3.333-.387-4.664-1.162-1.32-.786-2.349-1.876-3.087-3.27-.738-1.405-1.107-3.043-1.107-4.913 0-1.959.363-3.652 1.09-5.08.727-1.438 1.739-2.545 3.037-3.32 1.308-.785 2.841-1.178 4.596-1.178 1.824 0 3.373.415 4.648 1.245 1.286.83 2.248 2.014 2.885 3.552.649 1.538.929 3.37.839 5.495h-3.02v-1.063c-.033-2.202-.486-3.845-1.359-4.93-.872-1.095-2.169-1.643-3.892-1.643-1.845 0-3.249.586-4.211 1.76-.962 1.172-1.443 2.854-1.443 5.046 0 2.113.481 3.751 1.443 4.913.962 1.162 2.332 1.743 4.11 1.743 1.197 0 2.237-.271 3.121-.814.884-.542 1.577-1.322 2.08-2.34l2.869.98c-.705 1.582-1.767 2.81-3.187 3.684-1.41.864-2.992 1.295-4.748 1.295Zm-6.694-8.631v-2.374h13.388v2.373h-13.388Zm-11.334 8.133V9.895h2.667v4.332l-.436-.564a6.74 6.74 0 0 1 .822-1.527 5.143 5.143 0 0 1 1.158-1.145 5.15 5.15 0 0 1 1.594-.864 6.815 6.815 0 0 1 1.812-.348 5.879 5.879 0 0 1 1.728.116v2.772c-.627-.166-1.315-.21-2.064-.133a4.216 4.216 0 0 0-2.08.814 4.442 4.442 0 0 0-1.359 1.494 6.44 6.44 0 0 0-.654 1.909 11.553 11.553 0 0 0-.185 2.075v8.996h-3.003Zm-11.71.498c-1.354 0-2.489-.243-3.406-.73-.906-.498-1.594-1.151-2.063-1.959a5.283 5.283 0 0 1-.688-2.656c0-.94.179-1.754.537-2.44a4.783 4.783 0 0 1 1.543-1.726c.66-.465 1.448-.83 2.366-1.096a27.311 27.311 0 0 1 2.885-.597c1.074-.177 2.159-.338 3.255-.482a379.27 379.27 0 0 0 3.07-.415l-1.074.614c.034-1.593-.291-2.772-.973-3.535-.671-.764-1.834-1.146-3.489-1.146-1.096 0-2.058.25-2.886.747-.816.487-1.392 1.284-1.728 2.39l-2.835-.846c.436-1.571 1.28-2.805 2.533-3.701 1.253-.897 2.902-1.345 4.949-1.345 1.644 0 3.054.293 4.228.88 1.186.575 2.036 1.45 2.55 2.622.257.554.419 1.157.487 1.81.067.642.1 1.317.1 2.025v11.088h-2.651v-4.299l.621.398c-.682 1.45-1.638 2.546-2.869 3.287-1.219.741-2.706 1.112-4.462 1.112Zm.453-2.473c1.073 0 2.002-.188 2.785-.565.794-.387 1.431-.89 1.912-1.51.481-.63.794-1.317.94-2.058a6.706 6.706 0 0 0 .268-1.843 50.39 50.39 0 0 0 .034-1.577l1.04.448c-.973.133-1.929.26-2.869.382-.939.122-1.829.255-2.667.399-.839.132-1.594.293-2.265.48a7.418 7.418 0 0 0-1.393.599 3.146 3.146 0 0 0-1.04.946c-.257.376-.386.846-.386 1.41 0 .488.123.952.369 1.395.258.443.649.802 1.175 1.079.536.277 1.236.415 2.097.415Zm-24.864 1.975L91.445 9.878l2.97.017 4.043 13.114 4.077-13.114h2.634l4.06 13.114 4.06-13.114h2.952l-5.536 17.927h-2.483l-4.379-13.628-4.378 13.628h-2.483Zm-14.914.498c-1.353 0-2.488-.243-3.405-.73-.906-.498-1.594-1.151-2.064-1.959a5.286 5.286 0 0 1-.688-2.656c0-.94.179-1.754.537-2.44a4.788 4.788 0 0 1 1.543-1.726c.66-.465 1.449-.83 2.366-1.096a27.305 27.305 0 0 1 2.886-.597 99.896 99.896 0 0 1 3.254-.482 376.87 376.87 0 0 0 3.07-.415l-1.073.614c.033-1.593-.291-2.772-.973-3.535-.671-.764-1.835-1.146-3.49-1.146-1.096 0-2.058.25-2.886.747-.816.487-1.392 1.284-1.728 2.39l-2.835-.846c.436-1.571 1.28-2.805 2.533-3.701 1.253-.897 2.903-1.345 4.95-1.345 1.644 0 3.053.293 4.227.88 1.186.575 2.036 1.45 2.55 2.622a5.61 5.61 0 0 1 .487 1.81c.067.642.1 1.317.1 2.025v11.088h-2.65v-4.299l.62.398c-.682 1.45-1.638 2.546-2.868 3.287-1.22.741-2.707 1.112-4.463 1.112Zm.453-2.473c1.074 0 2.002-.188 2.785-.565.794-.387 1.432-.89 1.913-1.51.48-.63.794-1.317.94-2.058a6.732 6.732 0 0 0 .268-1.843c.022-.686.033-1.212.033-1.577l1.04.448c-.973.133-1.929.26-2.869.382-.939.122-1.828.255-2.667.399a20.06 20.06 0 0 0-2.265.48 7.42 7.42 0 0 0-1.392.599 3.154 3.154 0 0 0-1.04.946c-.258.376-.386.846-.386 1.41 0 .488.123.952.369 1.395.257.443.648.802 1.174 1.079.537.277 1.236.415 2.097.415ZM70.91 27.823V3.422h2.987v24.4h-2.986Zm-10.294.497c-1.778 0-3.333-.387-4.664-1.162-1.32-.786-2.349-1.876-3.087-3.27-.738-1.405-1.107-3.043-1.107-4.913 0-1.959.363-3.652 1.09-5.08.727-1.438 1.74-2.545 3.037-3.32 1.308-.785 2.84-1.178 4.597-1.178 1.823 0 3.372.415 4.647 1.245 1.286.83 2.248 2.014 2.885 3.552.65 1.538.929 3.37.84 5.495h-3.02v-1.063c-.034-2.202-.487-3.845-1.36-4.93-.872-1.095-2.17-1.643-3.892-1.643-1.845 0-3.249.586-4.21 1.76-.962 1.172-1.443 2.854-1.443 5.046 0 2.113.48 3.751 1.442 4.913.962 1.162 2.332 1.743 4.11 1.743 1.197 0 2.238-.271 3.121-.814.884-.542 1.577-1.322 2.08-2.34l2.87.98c-.705 1.582-1.768 2.81-3.188 3.684-1.41.864-2.992 1.295-4.748 1.295Zm-6.694-8.631v-2.374H67.31v2.373H53.922ZM41.739 28.32c-1.689 0-3.137-.415-4.345-1.244-1.208-.842-2.142-1.976-2.802-3.403-.648-1.428-.973-3.038-.973-4.83 0-1.794.325-3.404.973-4.831.66-1.428 1.594-2.55 2.802-3.37 1.208-.83 2.65-1.245 4.328-1.245 1.712 0 3.149.41 4.312 1.229 1.163.819 2.041 1.942 2.634 3.37.604 1.427.906 3.042.906 4.846 0 1.782-.302 3.392-.906 4.83-.593 1.428-1.47 2.562-2.634 3.404-1.163.83-2.595 1.244-4.295 1.244Zm.37-2.705c1.218 0 2.22-.288 3.002-.863.783-.587 1.36-1.39 1.728-2.407.38-1.03.57-2.197.57-3.503 0-1.328-.19-2.495-.57-3.502-.369-1.018-.94-1.81-1.711-2.374-.772-.575-1.75-.863-2.936-.863-1.23 0-2.248.299-3.053.896-.794.598-1.387 1.406-1.779 2.424-.38 1.018-.57 2.158-.57 3.42 0 1.272.196 2.423.587 3.452.392 1.018.979 1.826 1.762 2.423.794.598 1.784.897 2.97.897Zm5.3 2.207V14.626h-.335V3.919h3.003v23.903H47.41ZM157.24 5.807V5.71l1.946-3.243h-1.775v-.715h3.13v.096l-1.935 3.237h1.878v.72h-3.244Zm-4.055 0 1.252-4.054h1.155l1.252 4.054h-.797l-1.115-3.576h.148l-1.098 3.576h-.797Zm.751-.845v-.715h2.163v.715h-2.163Z"/><path fill="#AAA9AD" fill-rule="evenodd" d="M15.16 0H0v30h15.16c8.373 0 15.16-6.716 15.16-15 0-8.284-6.787-15-15.16-15Zm1.422 25.726c-.348-.102-.706-.512-.782-.905-.049-.256.01-.432.38-1.143 1.5-2.868 2.153-5.507 2.153-8.706 0-3.093-.576-5.503-2.01-8.388-.308-.618-.558-1.196-.558-1.28 0-.309.259-.755.54-.927.384-.238 1.032-.194 1.345.093.12.11.428.613.687 1.116a21.005 21.005 0 0 1 2.077 6.447c.215 1.408.26 4.073.085 5.362-.317 2.374-.951 4.496-1.97 6.57-.616 1.253-1 1.77-1.322 1.77-.062 0-.17.017-.232.035-.063.018-.241 0-.393-.044Zm-4.176-2.158c-.536-.154-.925-.808-.768-1.293.035-.12.29-.662.562-1.209 1.148-2.317 1.626-4.797 1.394-7.232-.192-2.004-.554-3.266-1.47-5.11-.612-1.24-.643-1.43-.285-1.933.339-.477 1.188-.552 1.63-.15.308.278 1.268 2.26 1.639 3.38 1.224 3.707 1.036 7.691-.532 11.332-.808 1.866-1.375 2.444-2.17 2.215Zm-5.003-3.032c.08.35.367.698.697.843.148.066.398.102.554.089.514-.067.768-.34 1.282-1.368.893-1.796 1.215-3.133 1.22-5.08.004-1.892-.34-3.37-1.18-5.074-.545-1.108-.862-1.412-1.474-1.412-.362 0-.473.04-.732.282-.523.49-.51.737.111 1.977 1.412 2.829 1.398 5.613-.049 8.508-.393.785-.478 1.024-.429 1.236ZM4.08 19.341c-.263-.106-.562-.46-.652-.768-.098-.344-.018-.618.375-1.258.51-.825.626-1.266.626-2.343s-.116-1.522-.626-2.343c-.174-.278-.344-.613-.384-.746-.165-.543.295-1.209.911-1.324.523-.097.88.133 1.363.874 1.389 2.145 1.389 5.004 0 7.131-.492.746-1.037 1.01-1.613.777Z" clip-rule="evenodd"/></svg>