<svg xmlns="http://www.w3.org/2000/svg" width="844" height="252" fill="none"><path fill="#fff" d="M45.093 15.379v220.7c0 9.468-2.612 12.08-12.08 12.08H12.118c-9.468 0-12.08-2.612-12.08-12.08v-220.7c0-9.468 2.612-12.08 12.08-12.08h20.895c9.468 0 12.08 2.612 12.08 12.08Zm102.03 145.61c0-4.571-1.306-5.877-5.876-5.877h-3.918c-9.468 0-12.08-2.612-12.08-12.08v-21.547c0-9.468 2.612-12.08 12.08-12.08h41.463c9.468 0 12.08 2.612 12.08 12.08v58.113c0 52.564-15.671 71.826-63.011 71.826s-63.01-19.262-63.01-71.826V71.86C64.85 19.296 80.52.034 127.86.034s62.358 19.262 62.358 71.826v1.632c0 9.468-2.612 12.08-12.08 12.08h-20.895c-9.468 0-12.08-2.612-12.08-12.08v-9.468c0-13.06-5.55-18.283-16.977-18.283-11.426 0-16.977 5.224-16.977 18.283v123.41c0 13.059 5.877 18.283 17.957 18.283 12.406 0 17.956-5.224 17.956-18.283v-26.445ZM291.795 83.94c1.632 2.938 2.285 3.59 4.244 3.59 1.959 0 2.612-.979 2.612-3.264V15.378c0-9.467 2.612-12.08 12.08-12.08h19.915c9.468 0 12.08 2.613 12.08 12.08V236.08c0 9.468-2.612 12.08-12.08 12.08h-19.915c-9.468 0-12.08-2.612-12.08-12.08v-44.727c0-15.345-2.285-20.895-7.835-31.343l-30.363-56.481c-1.633-2.938-2.286-3.591-4.244-3.591-1.959 0-2.612.979-2.612 3.265V236.08c0 9.468-2.612 12.08-12.08 12.08h-19.915c-9.468 0-12.08-2.612-12.08-12.08V15.38c0-9.468 2.612-12.08 12.08-12.08h12.732c12.08 0 16.651 1.959 23.507 15.344l33.954 65.296Zm119.173-68.561v220.7c0 9.468-2.612 12.08-12.08 12.08h-20.895c-9.467 0-12.079-2.612-12.079-12.08v-220.7c0-9.468 2.612-12.08 12.079-12.08h20.895c9.468 0 12.08 2.612 12.08 12.08Zm112.957 33.627h-20.242c-4.57 0-5.876 1.306-5.876 5.877v181.196c0 9.468-2.612 12.08-12.08 12.08h-20.895c-9.468 0-12.08-2.612-12.08-12.08V54.883c0-4.571-1.305-5.877-5.876-5.877h-20.242c-9.468 0-12.08-2.612-12.08-12.08V15.38c0-9.468 2.612-12.08 12.08-12.08h97.291c9.468 0 12.08 2.612 12.08 12.08v21.547c0 9.468-2.612 12.08-12.08 12.08Zm60.817 5.877v36.565c0 4.245 1.306 5.877 5.877 5.877h40.484c9.468 0 12.079 2.612 12.079 12.08v21.548c0 9.468-2.611 12.079-11.426 12.079h-41.137c-4.571 0-5.877 1.306-5.877 5.877v47.666c0 4.245 1.306 5.877 5.877 5.877h44.401c9.468 0 12.08 2.612 12.08 12.08v21.547c0 9.468-2.612 12.08-12.08 12.08h-83.252c-9.468 0-12.08-2.612-12.08-12.08v-220.7c0-9.468 2.612-12.08 12.08-12.08h83.252c9.468 0 12.08 2.612 12.08 12.08v21.547c0 9.468-2.612 12.08-12.08 12.08h-44.401c-4.571 0-5.877 1.306-5.877 5.877Zm104.048 70.846c0-1.959-.653-3.265-3.591-7.183l-13.386-18.282c-16.324-22.201-17.63-29.057-17.63-56.808V15.052c0-9.141 2.612-11.753 12.08-11.753h22.201c9.468 0 12.08 2.612 12.08 11.753v28.404c0 15.018.326 18.61 8.162 31.342l5.223 8.489c1.306 2.285 2.612 2.938 4.245 2.938 1.632 0 2.938-.653 4.244-2.938l5.223-8.489c7.836-12.733 8.163-16.324 8.163-31.342V15.052c0-9.141 2.611-11.753 12.079-11.753h22.201c9.468 0 12.08 2.612 12.08 11.753v28.404c0 27.75-1.306 34.607-17.63 56.808l-13.386 18.282c-2.938 3.918-3.591 5.224-3.591 7.183 0 1.959.653 3.265 3.591 7.183l13.386 18.282c16.324 22.201 17.63 29.057 17.63 56.808v28.404c0 9.141-2.612 11.753-12.08 11.753h-22.201c-9.468 0-12.079-2.612-12.079-11.753v-28.404c0-15.018-.327-18.283-8.163-31.342l-5.223-8.489c-1.306-2.285-2.612-2.938-4.244-2.938-1.633 0-2.939.653-4.245 2.938l-5.223 8.489c-7.836 13.059-8.162 16.324-8.162 31.342v28.404c0 9.141-2.612 11.753-12.08 11.753h-22.201c-9.468 0-12.08-2.612-12.08-11.753v-28.404c0-27.751 1.306-34.607 17.63-56.808l13.386-18.282c2.938-3.918 3.591-5.224 3.591-7.183ZM813.598 10.354h-3.257c-.736 0-.946.21-.946.946v29.154c0 1.524-.42 1.944-1.943 1.944h-3.362c-1.524 0-1.944-.42-1.944-1.944V11.3c0-.736-.21-.946-.945-.946h-3.257c-1.524 0-1.944-.42-1.944-1.943V4.944C796 3.42 796.42 3 797.944 3h15.654c1.523 0 1.943.42 1.943 1.944V8.41c0 1.523-.42 1.943-1.943 1.943ZM830.58 31.21h-1.261c-1.786 0-2.311-.316-2.836-1.892l-2.574-8.142c-.158-.526-.263-.578-.526-.578-.315 0-.42.105-.42.578v19.279c0 1.523-.42 1.943-1.944 1.943h-2.941c-1.524 0-1.944-.42-1.944-1.944V4.945c0-1.524.42-1.944 1.944-1.944h3.362c2.311 0 3.047.525 3.729 2.732l4.15 13.658c.158.472.316.63.631.63s.472-.158.63-.63l4.15-13.658C835.413 3.525 836.148 3 838.46 3h3.362c1.523 0 1.943.42 1.943 1.944v35.51c0 1.524-.42 1.944-1.943 1.944h-2.942c-1.523 0-1.944-.42-1.944-1.944V21.177c0-.473-.105-.578-.42-.578-.263 0-.368.052-.525.578l-2.574 8.142c-.526 1.576-1.051 1.891-2.837 1.891Z"/></svg>