<svg xmlns="http://www.w3.org/2000/svg" width="951" height="614" fill="none"><path fill="#F5F5F5" d="M887.564 613.159c-6.584-.877-15.581-2.633-26.992-5.266-11.412-2.195-23.043-6.803-34.893-13.826-11.85-7.022-21.945-17.775-30.284-32.259-8.339-14.045-12.509-32.918-12.509-56.618 0-27.212 5.486-57.057 16.459-89.536 11.411-32.917 25.237-67.152 41.476-102.702a5225.313 5225.313 0 0 0 46.743-105.337c11.85-27.65 17.775-48.718 17.775-63.201 0-14.484-5.486-21.726-16.458-21.726-12.29 0-30.723 9.875-55.302 29.626-24.139 19.312-52.229 48.718-84.269 88.219-8.339 10.534-19.092 25.237-32.259 44.109-13.167 18.434-27.212 39.063-42.134 61.885a2618.34 2618.34 0 0 0-44.11 68.469c-14.045 22.823-26.553 43.89-37.526 63.202-10.533 19.311-18.214 34.673-23.042 46.084-5.706 13.606-12.289 22.823-19.751 27.651-7.461 5.267-14.483 7.9-21.067 7.9-5.706 0-10.533-1.536-14.484-4.608-4.389-3.073-6.583-6.803-6.583-11.192 0-2.634.658-4.828 1.975-6.584 2.633-5.267 9.217-17.337 19.75-36.209 10.534-18.873 22.823-43.89 36.868-75.052 14.045-31.162 27.431-67.371 40.16-108.628 3.95-12.728 7.9-27.431 11.85-44.11 4.389-16.678 8.339-33.795 11.85-51.351 3.511-17.995 6.364-34.673 8.559-50.035 2.633-15.8 3.95-28.528 3.95-38.184 0-15.361-2.634-26.553-7.9-33.576-5.267-7.461-12.29-11.192-21.068-11.192-9.655 0-20.628 4.17-32.917 12.509-12.289 8.339-24.798 20.409-37.526 36.209-21.945 27.651-41.257 53.327-57.935 77.027-16.678 23.262-32.04 46.524-46.084 69.785-13.606 23.262-27.212 48.06-40.818 74.394-13.167 26.334-27.212 55.96-42.135 88.877-14.922 32.479-32.039 70.224-51.351 113.237-3.072 7.022-8.339 12.069-15.8 15.142-7.023 3.072-13.606 4.608-19.751 4.608-6.145 0-11.192-1.317-15.142-3.95-3.95-2.633-5.267-6.364-3.95-11.192 9.656-15.361 20.409-34.454 32.259-57.276 11.85-23.262 23.92-48.938 36.209-77.027 12.29-28.09 24.14-57.277 35.551-87.561 11.412-30.284 21.506-59.91 30.284-88.877 9.217-28.968 16.459-56.18 21.726-81.636 5.267-25.456 7.9-47.182 7.9-65.177 0-33.795-7.242-57.934-21.725-72.418-14.045-14.484-32.26-21.726-54.644-21.726-19.75 0-41.476 4.828-65.176 14.484-23.701 9.656-47.621 22.823-71.76 39.501-23.701 16.678-46.085 35.551-67.152 56.618-30.284 30.284-54.204 63.202-71.76 98.753-17.118 35.551-25.676 71.541-25.676 107.969 0 24.579 4.608 45.427 13.825 62.544 9.217 17.117 21.287 30.064 36.21 38.842 15.361 8.778 32.259 13.167 50.693 13.167 18.872 0 36.428-4.608 52.668-13.825 16.678-9.656 31.162-21.945 43.451-36.868 12.728-15.361 22.603-31.381 29.626-48.059 7.022-17.117 10.533-33.137 10.533-48.06 0-12.728-3.511-23.262-10.533-31.601-7.023-8.339-18.215-12.508-33.576-12.508-1.756 0-3.731.219-5.926.658h-7.9c-3.072 0-5.925-.439-8.558-1.317-2.634-1.316-3.95-2.853-3.95-4.608 0-1.756 2.194-3.731 6.583-5.925 4.828-2.195 13.387-3.292 25.676-3.292 19.75 0 34.453 5.925 44.109 17.775 10.095 11.412 15.142 26.115 15.142 44.11 0 17.556-4.608 35.551-13.825 53.985-8.778 18.433-20.848 35.551-36.209 51.351-15.362 15.8-32.698 28.529-52.01 38.184-18.873 9.656-38.404 14.484-58.593 14.484-23.701 0-45.865-5.486-66.494-16.459C47.728 432.991 31.49 417.19 19.2 396.562 6.91 375.495.766 350.477.766 321.51c0-27.651 5.705-54.862 17.117-81.635 11.411-27.212 26.114-52.668 44.11-76.369 18.433-24.14 37.964-45.426 58.592-63.86 22.823-20.628 46.963-38.184 72.419-52.668 25.456-14.923 50.693-26.334 75.71-34.234C294.171 4.404 317.871.235 339.816.235c32.479 0 59.252 9.656 80.319 28.967 21.506 19.312 32.259 50.474 32.259 93.486 0 17.556-2.414 37.746-7.242 60.568-4.828 22.384-10.533 44.988-17.117 67.811-6.583 22.383-12.947 42.353-19.092 59.909h1.317c15.8-28.528 29.845-52.887 42.134-73.076 12.728-20.629 25.456-39.721 38.184-57.277 12.729-17.556 26.993-35.99 42.793-55.301 13.606-16.24 29.187-29.187 46.743-38.843 17.556-9.656 34.454-14.484 50.693-14.484 14.484 0 26.773 4.828 36.868 14.484 10.094 9.656 15.142 26.114 15.142 49.376v6.584c0 1.755-.22 4.389-.658 7.9-3.951 42.134-12.29 83.61-25.018 124.428A9743.276 9743.276 0 0 1 617.64 397.22c13.606-21.067 32.04-47.84 55.302-80.318 23.261-32.479 48.718-66.055 76.368-100.728 33.796-42.134 65.177-73.735 94.144-94.803 28.968-21.067 52.888-31.6 71.761-31.6 23.7 0 35.551 14.483 35.551 43.451 0 10.972-2.195 24.139-6.584 39.501-3.95 15.361-10.314 31.601-19.092 48.718-9.656 19.311-20.409 41.695-32.259 67.152-11.412 25.017-22.384 51.351-32.918 79.002-10.533 27.65-19.311 54.862-26.334 81.635-6.583 26.334-9.875 50.693-9.875 73.077 0 24.14 5.486 43.451 16.459 57.935 11.411 14.922 30.942 22.384 58.593 22.384h3.95c6.583 0 9.875 1.316 9.875 3.95 0 1.755-2.194 3.511-6.583 5.267-4.389 1.755-10.534 2.194-18.434 1.316Z"/></svg>