<svg xmlns="http://www.w3.org/2000/svg" width="114" height="30" fill="none"><path fill="#AAA9AD" d="M60.449 14.591c-.713.694-1.07 1.705-1.07 3.032v8.293h-4.755V9.628h3.774v5.375c.181-1.534.637-2.771 1.368-3.71.99-1.249 2.417-1.873 4.28-1.873h.624v4.101h-1.19c-1.307 0-2.318.357-3.031 1.07Z"/><path fill="#AAA9AD" fill-rule="evenodd" d="M74.864 23.924c.204-.346.372-.728.505-1.146v3.137h3.775V15.93c0-1.506-.297-2.735-.892-3.686-.594-.97-1.466-1.694-2.615-2.17-1.13-.475-2.527-.713-4.19-.713a61.098 61.098 0 0 0-5.351.238v4.013c.614-.04 1.298-.08 2.05-.12a88.83 88.83 0 0 1 3.924-.118c.872 0 1.506.208 1.902.624.397.416.595 1.04.595 1.872v.06h-2.943c-1.446 0-2.724.188-3.834.565-1.11.356-1.971.92-2.586 1.694-.614.753-.92 1.724-.92 2.912 0 1.09.247 2.032.742 2.824.495.773 1.18 1.367 2.05 1.783.892.416 1.923.624 3.092.624 1.13 0 2.08-.208 2.853-.624a4.442 4.442 0 0 0 1.843-1.783Zm-.773-2.14c.278-.456.436-1.09.476-1.902v-1.308h-2.972c-.833 0-1.477.208-1.932.624-.436.396-.654.941-.654 1.635 0 .654.218 1.189.654 1.605.455.396 1.1.594 1.932.594.534 0 1.01-.089 1.426-.267.436-.198.793-.525 1.07-.98Z" clip-rule="evenodd"/><path fill="#AAA9AD" d="M89.004 26.48c-1.407 0-2.635-.228-3.686-.684-1.03-.475-1.892-1.11-2.585-1.902a7.872 7.872 0 0 1-1.546-2.675 9.798 9.798 0 0 1-.505-3.12v-.565c0-1.11.178-2.17.535-3.18a8.164 8.164 0 0 1 1.575-2.735c.694-.793 1.556-1.417 2.586-1.872 1.05-.456 2.249-.684 3.596-.684 1.466 0 2.764.287 3.894.862 1.13.555 2.031 1.337 2.705 2.348.673 1.01 1.05 2.17 1.129 3.477h-4.666a2.91 2.91 0 0 0-.892-1.842c-.496-.515-1.219-.773-2.17-.773-.792 0-1.456.198-1.99.594-.516.397-.903.942-1.16 1.635-.258.694-.386 1.516-.386 2.467 0 .872.118 1.664.356 2.378.238.693.615 1.238 1.13 1.634.534.377 1.228.565 2.08.565.634 0 1.17-.109 1.605-.327a2.777 2.777 0 0 0 1.07-.951 3.16 3.16 0 0 0 .505-1.427h4.637c-.06 1.348-.436 2.537-1.13 3.567-.693 1.01-1.615 1.803-2.764 2.378-1.149.555-2.457.832-3.923.832Z"/><path fill="#AAA9AD" fill-rule="evenodd" d="M102.151 25.767c1.07.475 2.298.713 3.685.713 1.367 0 2.576-.238 3.626-.713a7.091 7.091 0 0 0 2.616-1.992 6.876 6.876 0 0 0 1.397-2.912h-4.37c-.197.495-.574.911-1.129 1.248-.555.337-1.268.505-2.14.505-.951 0-1.724-.198-2.318-.594-.595-.396-1.03-.951-1.308-1.665a6.324 6.324 0 0 1-.335-1.337h11.897v-1.605c0-1.486-.317-2.853-.951-4.102a7.622 7.622 0 0 0-2.764-3.061c-1.189-.793-2.655-1.189-4.399-1.189-1.328 0-2.517.238-3.567.713-1.03.456-1.892 1.08-2.585 1.873a8.665 8.665 0 0 0-1.606 2.705 9.146 9.146 0 0 0-.535 3.12v.595c0 1.05.179 2.08.535 3.09a9.14 9.14 0 0 0 1.605 2.705c.714.793 1.595 1.427 2.646 1.903Zm-.239-9.452c.074-.426.184-.812.328-1.16.297-.732.733-1.287 1.308-1.663.574-.377 1.278-.565 2.11-.565.812 0 1.486.188 2.021.565.555.356.971.881 1.248 1.575.151.375.26.791.329 1.248h-7.344Z" clip-rule="evenodd"/><path fill="#AAA9AD" d="M43.301 25.915V8.468h-6.093v-4.25h17.09v4.25h-6.123v17.447h-4.874Z"/><path fill="#AAA9AD" fill-rule="evenodd" d="M15 2.727C8.222 2.727 2.727 8.222 2.727 15S8.222 27.273 15 27.273 27.273 21.778 27.273 15 21.778 2.727 15 2.727ZM0 15C0 6.716 6.716 0 15 0c8.284 0 15 6.716 15 15 0 8.284-6.716 15-15 15-8.284 0-15-6.716-15-15Z" clip-rule="evenodd"/><path fill="#AAA9AD" fill-rule="evenodd" d="M22.483 9.914c.4-1.259-.794-2.442-2.05-2.03l-8.55 2.806a1.62 1.62 0 0 0-1.04 1.05l-2.649 8.345c-.4 1.26.794 2.442 2.05 2.03l8.55-2.805a1.62 1.62 0 0 0 1.04-1.05l2.649-8.346Zm-7.146 7.034a1.948 1.948 0 1 0 0-3.896 1.948 1.948 0 0 0 0 3.896Z" clip-rule="evenodd"/></svg>