<svg xmlns="http://www.w3.org/2000/svg" width="117" height="30" fill="none"><mask id="a" width="117" height="30" x="0" y="0" maskUnits="userSpaceOnUse" style="mask-type:luminance"><path fill="#fff" d="M116.5 0H.5v30h116V0Z"/></mask><g mask="url(#a)"><mask id="b" width="116" height="29" x="0" y="0" maskUnits="userSpaceOnUse" style="mask-type:luminance"><path fill="#fff" d="M115.864.977H.836V28.79h115.028V.977Z"/></mask><g fill="#AAA9AD" mask="url(#b)"><path d="M59.31 5.304a33.956 33.956 0 0 0-5.81 4.309 151.274 151.274 0 0 0-5.315 4.996 97.107 97.107 0 0 0-2.905 2.936l-2.843 2.997a31.143 31.143 0 0 1-1.607 1.75 33.398 33.398 0 0 0-1.607 1.748 25.44 25.44 0 0 0 2.534-.75 69.015 69.015 0 0 1 2.349-.749 22.85 22.85 0 0 0 1.977-.5 19.52 19.52 0 0 1 2.102-.5c.7-.166 1.4-.25 2.101-.25.742-.04 1.422.063 2.04.313.783.292 1.257.791 1.421 1.499.124.458.083.895-.123 1.312.7-.209 1.38-.438 2.04-.687.7-.25 1.359-.48 1.977-.687l3.585-1.125a27.872 27.872 0 0 1 3.647-.999 4.85 4.85 0 0 1 1.174-.125c.494-.041.927 0 1.298.125.37.125.638.354.803.687.206.292.227.729.062 1.312-.124.374-.37.687-.742.936-.37.209-.803.375-1.298.5-.494.125-.988.23-1.483.312-.494.042-.886.104-1.174.188-1.401.416-2.781.853-4.141 1.311l-4.08 1.25c-.7.207-1.462.416-2.286.624-.824.25-1.607.291-2.349.125-.288-.042-.597-.167-.927-.375-.7-.541-1.03-1.04-.989-1.499.041-.458.227-.916.556-1.374h-.741c-1.484.25-2.967.562-4.45.937-1.195.333-2.41.708-3.647 1.124a15.944 15.944 0 0 1-3.708.812 2.639 2.639 0 0 1-1.36-.25c-.453-.166-.783-.52-.99-1.061-.164-.459-.164-.896 0-1.312.166-.458.392-.895.68-1.312a39.309 39.309 0 0 1-3.399 1.812c-1.03.458-1.813.79-2.348.999-1.072.458-2.225.937-3.461 1.436-1.236.5-2.473.729-3.709.687-1.36-.083-2.184-.458-2.472-1.124-.288-.666-.227-1.499.186-2.498.37-1.04.968-2.144 1.792-3.31a43.816 43.816 0 0 1 2.596-3.435 63.34 63.34 0 0 1 2.596-2.81c.783-.833 1.298-1.374 1.545-1.624l.865-.875H25.75c-1.154 0-2.328.021-3.523.063-2.39.083-4.759.208-7.108.375-2.39.124-4.78.312-7.17.562-.864.125-1.71.25-2.533.374-.866.084-1.73.23-2.596.438a5.638 5.638 0 0 0-.68.187.954.954 0 0 1-.68 0c-.453-.167-.66-.458-.618-.874 0-.458.206-.75.618-.875a80.554 80.554 0 0 1 15.266-2.435 281.337 281.337 0 0 1 15.514-.688 199.68 199.68 0 0 1 3.214-2.935 234.707 234.707 0 0 1 3.275-2.873c.536-.5 1.154-1.124 1.855-1.873.741-.791 1.483-1.291 2.225-1.5.412-.124.762-.103 1.05.063.33.125.577.354.742.687.165.292.227.625.186 1a1.654 1.654 0 0 1-.495.999 304.88 304.88 0 0 0-3.77 3.247 88.698 88.698 0 0 0-3.647 3.248 5.79 5.79 0 0 1 1.731.25c.494.125.927.333 1.298.624.412.292.7.729.865 1.312.123.5.062.937-.185 1.311a2.327 2.327 0 0 1-.927.75 2.235 2.235 0 0 1-1.175.062c-.37-.125-.66-.395-.865-.812a7.6 7.6 0 0 0-1.854-.437 11.28 11.28 0 0 0-1.978-.187l-.618.562a536.665 536.665 0 0 0-5.377 5.246c-1.855 1.874-3.317 3.893-4.389 6.058a32.67 32.67 0 0 0 4.45-1.249 60.092 60.092 0 0 0 4.512-1.811 85.309 85.309 0 0 0 4.389-2.123 51.564 51.564 0 0 0 4.017-2.436 171.418 171.418 0 0 1 4.76-4.747 126.899 126.899 0 0 1 5.006-4.559 97.908 97.908 0 0 1 3.152-2.685 44.54 44.54 0 0 1 3.275-2.436 3.343 3.343 0 0 1 1.484-.625c.577-.125 1.05.104 1.421.687.206.375.247.791.124 1.25a1.53 1.53 0 0 1-.68.999Z"/><path d="M95.462 24.102c-.948.084-1.895.25-2.843.5-.907.208-1.834.416-2.781.625a606.02 606.02 0 0 1-7.355 1.686c-2.431.5-4.904.874-7.417 1.124-.66.083-1.36.146-2.102.187-.7.042-1.421.021-2.163-.062-.7-.083-1.38-.25-2.04-.5a5.098 5.098 0 0 1-1.792-.999 3.981 3.981 0 0 1-1.05-1.311 3.645 3.645 0 0 1-.495-1.562 3.323 3.323 0 0 1 .124-1.561c.165-.541.474-1.02.927-1.437.288-.291.741-.52 1.36-.687.659-.208 1.38-.354 2.163-.437a14.75 14.75 0 0 1 2.348-.062c.783.041 1.463.187 2.04.437s.968.604 1.174 1.062c.248.416.227.957-.061 1.623-.248.5-.619.854-1.113 1.062a6.532 6.532 0 0 1-1.669.437 14.72 14.72 0 0 1-1.916 0 43.01 43.01 0 0 1-1.73-.25c.164.167.494.313.989.438.494.083 1.009.146 1.545.187.577.042 1.092.063 1.545.063h.927a48.37 48.37 0 0 0 5.995-.875 249.98 249.98 0 0 0 5.995-1.311 667.16 667.16 0 0 0 4.265-1 31.585 31.585 0 0 1 4.326-.811c.619-.042 1.134.104 1.546.437.412.333.68.728.803 1.186a1.36 1.36 0 0 1-.185 1.187c-.206.375-.66.583-1.36.624Z"/><path d="M114.117 24.102c-2.101.042-4.244.104-6.428.188a23.837 23.837 0 0 1-6.428-.75 1.09 1.09 0 0 1-.494-.125 7.735 7.735 0 0 1-1.113 2.061A8.23 8.23 0 0 1 98.11 27.1a5.642 5.642 0 0 1-1.916 1 3.556 3.556 0 0 1-1.978.062c-.618-.167-1.071-.479-1.36-.937a2.979 2.979 0 0 1-.556-1.561 4.296 4.296 0 0 1 .248-1.749 4.96 4.96 0 0 1 .741-1.561 4.945 4.945 0 0 1 2.04-1.5c.824-.332 1.648-.374 2.472-.124.083-.583.412-1.041.989-1.374.577-.333 1.195-.292 1.854.125a8.442 8.442 0 0 0 1.978.874c.742.167 1.504.27 2.287.312.783.042 1.545.063 2.287.063a42.018 42.018 0 0 1 2.225-.063c.824 0 1.71-.041 2.657-.125.948-.124 1.813-.062 2.596.188.454.166.763.437.927.812.206.374.268.75.186 1.124a1.647 1.647 0 0 1-.495 1c-.288.29-.679.436-1.174.436Zm-18.48.812c.124-.125.37-.187.742-.187v-.562a3.64 3.64 0 0 1-.371.312c-.165.083-.289.229-.371.437Z"/></g></g></svg>