<svg xmlns="http://www.w3.org/2000/svg" width="15" height="22" fill="none"><g clip-path="url(#a)"><path fill="#05080C" d="M7.335 11a3.667 3.667 0 1 1 7.333 0 3.667 3.667 0 0 1-7.333 0ZM.001 18.333a3.667 3.667 0 0 1 3.667-3.667h3.667v3.667a3.667 3.667 0 0 1-7.334 0Z"/><path fill="#999" d="M7.335 0v7.333H11A3.667 3.667 0 0 0 11 0H7.335Z"/><path fill="#05080C" d="M.001 3.667a3.667 3.667 0 0 0 3.667 3.666h3.667V0H3.668A3.667 3.667 0 0 0 .001 3.667Z"/><path fill="#999" d="M.001 11a3.667 3.667 0 0 0 3.667 3.667h3.667V7.334H3.668a3.667 3.667 0 0 0-3.667 3.667Z"/></g><defs><clipPath id="a"><path fill="#fff" d="M0 0h14.67v22H0z"/></clipPath></defs></svg>