<svg xmlns="http://www.w3.org/2000/svg" width="342" height="348" fill="none"><path fill="#AAA9AD" d="M116.905 347.415c-26.2 0-47.931-4.161-65.193-12.483-17.261-8.014-30.207-18.649-38.838-31.903C4.552 289.467.391 275.134.391 260.03c0-16.953 5.086-33.752 15.257-50.397 10.172-16.953 25.276-31.44 45.311-43.462 20.344-12.329 45.157-20.035 74.44-23.118-4.315-5.856-7.552-12.483-9.709-19.881-2.158-7.706-3.237-14.95-3.237-21.731.308-16.337 4.932-30.67 13.871-43 8.939-12.637 20.344-23.271 34.214-31.902A173.424 173.424 0 0 1 215.849 7.12C231.878 2.497 246.981.185 261.16.185c8.631 0 17.416 1.233 26.355 3.699 8.939 2.157 16.491 6.164 22.655 12.021 6.165 5.857 9.247 14.179 9.247 24.967 0 8.94-2.774 16.953-8.322 24.043-5.548 7.09-12.33 10.634-20.344 10.634-5.856 0-10.942-2.158-15.258-6.473-4.315-4.315-6.473-9.247-6.473-14.795 0-6.473 2.004-11.713 6.011-15.72 4.315-4.316 9.556-6.474 15.72-6.474 2.774 0 5.857.925 9.247 2.775 3.699 1.85 6.011 3.698 6.936 5.548.308-1.233.462-2.928.462-5.086 0-8.322-3.39-14.179-10.172-17.57-6.781-3.39-14.025-5.086-21.731-5.086-12.329 0-26.662 3.083-42.999 9.248-16.336 5.856-32.211 15.566-47.623 29.128-5.548 4.932-11.25 11.405-17.107 19.42-5.856 8.013-10.788 16.644-14.795 25.891-4.007 8.939-6.011 18.032-6.011 27.279 0 7.09 1.233 13.255 3.699 18.495 4.623 0 9.864-.154 15.72-.463a190.609 190.609 0 0 1 18.957-.924c8.014 0 14.333 1.695 18.956 5.085 4.624 3.391 6.936 7.244 6.936 11.559 0 3.083-1.85 6.011-5.549 8.785-3.698 2.774-9.555 4.161-17.569 4.161-10.172 0-19.419-2.157-27.742-6.473-8.014-4.623-14.333-9.247-18.956-13.87-20.344 2.774-37.605 10.326-51.784 22.655-14.18 12.33-24.968 26.971-32.365 43.924-7.398 16.645-11.097 33.29-11.097 49.935 0 13.254 2.466 25.584 7.398 36.988 5.24 11.405 13.1 20.498 23.58 27.28 10.48 7.089 23.734 10.634 39.763 10.634 16.645 0 31.748-3.083 45.311-9.247 13.871-5.857 25.738-13.563 35.601-23.118 9.864-9.556 17.416-19.573 22.656-30.053 5.548-10.789 8.322-20.807 8.322-30.054 0-8.014-2.928-14.641-8.784-19.881-5.549-5.548-12.946-9.556-22.194-12.021-9.247-2.775-19.11-4.162-29.591-4.162-10.788 0-21.576 1.542-32.365 4.624-10.48 2.774-19.419 7.244-26.816 13.408-7.398 5.857-11.868 13.409-13.409 22.656 0 .616-.154 1.387-.462 2.312v1.849c0 6.781 2.466 13.563 7.398 20.344 5.24 6.473 13.254 12.483 24.042 18.032 2.774 1.233 4.162 3.544 4.162 6.935 0 3.391-1.542 4.315-4.624 2.774-16.953-8.939-29.437-18.648-37.451-29.128-7.706-10.789-11.559-20.961-11.559-30.516 0-13.871 7.398-25.738 22.193-35.601 15.104-10.172 36.526-15.258 64.268-15.258h81.837c4.932 0 12.176-1.079 21.731-3.237 9.864-2.157 19.881-5.24 30.053-9.247 10.172-4.315 18.803-9.247 25.892-14.795 7.398-5.857 11.097-12.484 11.097-19.882 0-4.007-1.387-8.322-4.161-12.946-.617-.924-.925-2.003-.925-3.236 0-1.85.771-2.774 2.312-2.774 1.233 0 2.312.77 3.236 2.311 4.624 6.782 6.936 13.717 6.936 20.806 0 8.323-3.083 16.029-9.248 23.118-5.856 7.09-13.87 13.409-24.042 18.957-10.172 5.24-21.577 9.247-34.215 12.021-12.329 2.774-24.967 4.007-37.913 3.699 5.857 4.932 10.172 10.48 12.946 16.645 2.774 6.165 4.161 12.638 4.161 19.419 0 11.405-3.39 23.118-10.172 35.139-6.781 11.713-16.336 22.656-28.666 32.828-12.329 9.863-26.816 17.878-43.461 24.042-16.337 6.165-34.369 9.247-54.096 9.247Zm71.203-184.943c10.172 0 15.258-2.003 15.258-6.01 0-1.541-1.387-3.083-4.162-4.624-2.465-1.849-5.856-2.928-10.171-3.236-1.85-.309-4.932-.463-9.248-.463h-25.429c7.706 9.556 18.956 14.333 33.752 14.333Z"/></svg>