<svg xmlns="http://www.w3.org/2000/svg" width="30" height="30" fill="none"><path fill="#fff" d="M5.173 5.26c.973.758 1.338.7 3.164.583l17.22-.992c.365 0 .062-.35-.06-.408l-2.86-1.983c-.548-.408-1.278-.875-2.677-.758L3.286 2.868c-.608.058-.73.35-.488.584L5.173 5.26Zm1.034 3.85v17.38c0 .934.487 1.283 1.582 1.226l18.924-1.05c1.096-.059 1.218-.701 1.218-1.46V7.942c0-.757-.304-1.166-.975-1.108L7.18 7.942c-.73.059-.973.41-.973 1.167Zm18.682.932c.122.525 0 1.05-.549 1.11l-.911.173v12.832c-.792.408-1.522.641-2.13.641-.974 0-1.218-.292-1.948-1.166l-5.964-8.982v8.69l1.887.409s0 1.05-1.522 1.05l-4.198.233c-.122-.234 0-.817.425-.933l1.096-.291v-11.49L9.554 12.2c-.122-.525.182-1.283 1.034-1.342l4.504-.29 6.207 9.098v-8.049l-1.583-.174c-.121-.643.365-1.11.973-1.167l4.2-.234ZM1.886 1.294 19.229.068c2.13-.175 2.678-.057 4.017.875l5.536 3.733c.914.642 1.218.817 1.218 1.516v20.473c0 1.283-.487 2.042-2.19 2.158L7.667 29.99c-1.278.058-1.887-.117-2.557-.934l-4.077-5.074C.304 23.048 0 22.349 0 21.532V3.334c0-1.049.487-1.924 1.886-2.04Z"/></svg>