<svg xmlns="http://www.w3.org/2000/svg" width="134" height="30" fill="none"><mask id="a" width="134" height="30" x="0" y="0" maskUnits="userSpaceOnUse" style="mask-type:luminance"><path fill="#fff" d="M133.5 0H.5v30h133V0Z"/></mask><g mask="url(#a)"><mask id="b" width="133" height="29" x="0" y="0" maskUnits="userSpaceOnUse" style="mask-type:luminance"><path fill="#fff" d="M132.751.994H.5v27.814h132.251V.994Z"/></mask><g fill="#AAA9AD" mask="url(#b)"><path d="M10.559 28.18c-2.707-.09-4.753-.703-6.137-1.84-1.384-1.166-2.384-2.467-3-3.902C.809 20.972.5 19.492.5 17.996c0-1.555.292-3.05.877-4.486.615-1.466 1.615-2.767 2.999-3.903 1.415-1.166 3.2-1.765 5.352-1.794h14.95c2.153.03 3.922.628 5.307 1.794 1.415 1.136 2.414 2.438 2.999 3.903a11.28 11.28 0 0 1 .923 4.486c0 1.496-.308 2.976-.923 4.442-.615 1.435-1.615 2.736-3 3.903-1.384 1.136-3.43 1.75-6.136 1.839h-13.29ZM9.544 13.824c-.585 0-1.092.24-1.523.718a4.32 4.32 0 0 0-.969 1.615 6.056 6.056 0 0 0-.277 1.794c0 .628.093 1.256.277 1.884.215.599.538 1.137.97 1.616.43.448.937.688 1.522.717h15.319c.584-.03 1.092-.269 1.523-.717.43-.479.738-1.017.922-1.616a5.773 5.773 0 0 0 .323-1.884c0-.598-.107-1.196-.323-1.794a3.865 3.865 0 0 0-.922-1.615c-.431-.479-.939-.718-1.523-.718H9.543Zm58.969-3.409c0 .748-.308 1.376-.924 1.884-.584.479-1.307.718-2.168.718H45.903c-.4 0-.723.075-.969.224-.246.15-.43.314-.553.494-.124.15-.185.284-.185.404 0 .15.061.314.184.493.123.15.308.3.554.449.246.12.57.194.969.224h15.088c1.938.03 3.538.404 4.8 1.122 1.26.688 2.152 1.51 2.675 2.467.554.927.83 1.87.83 2.826 0 .928-.276 1.87-.83 2.827-.553.927-1.46 1.75-2.722 2.467-1.23.688-2.815 1.032-4.753 1.032a9.39 9.39 0 0 1-.738.045H42.35c-.861 0-1.6-.24-2.215-.718-.584-.509-.876-1.122-.876-1.84 0-.747.307-1.375.922-1.884.585-.478 1.308-.717 2.17-.717h19.01c.461.03.83-.03 1.107-.18.307-.15.538-.314.692-.493.154-.18.23-.36.23-.539 0-.09-.076-.239-.23-.448a1.392 1.392 0 0 0-.692-.539c-.277-.15-.646-.239-1.108-.269H46.226c-1.784-.03-3.26-.389-4.43-1.076-1.168-.718-1.999-1.54-2.491-2.468-.492-.927-.739-1.854-.739-2.781 0-.928.247-1.84.739-2.737.523-.927 1.353-1.72 2.492-2.378 1.169-.688 2.645-1.061 4.43-1.121.306-.03.537-.045.691-.045h18.503c.861 0 1.584.254 2.168.763.616.478.924 1.076.924 1.794ZM77.602.994c.83.03 1.538.329 2.122.897.585.538.893 1.211.923 2.019v21.982c-.184 1.795-1.2 2.767-3.045 2.916a3.425 3.425 0 0 1-2.261-.807 2.755 2.755 0 0 1-.923-2.109V3.91c.03-.838.354-1.526.97-2.064.614-.568 1.352-.852 2.214-.852ZM96.059 28.18c-2.707-.09-4.753-.703-6.137-1.84-1.384-1.166-2.384-2.467-2.999-3.902-.615-1.466-.923-2.946-.923-4.442 0-1.555.292-3.05.877-4.486.615-1.466 1.615-2.767 2.999-3.903 1.415-1.166 3.199-1.765 5.352-1.794h14.95c2.154.03 3.923.628 5.307 1.794 1.415 1.136 2.414 2.438 2.999 3.903a11.28 11.28 0 0 1 .923 4.486c0 1.496-.308 2.976-.923 4.442-.615 1.435-1.615 2.736-2.999 3.903-1.384 1.136-3.43 1.75-6.137 1.839h-13.29Zm-1.015-14.356c-.584 0-1.092.24-1.523.718-.43.448-.753.987-.969 1.615a6.056 6.056 0 0 0-.277 1.794c0 .628.093 1.256.277 1.884.216.599.538 1.137.97 1.616.43.448.938.688 1.522.717h15.319c.584-.03 1.092-.269 1.522-.717a4.264 4.264 0 0 0 .923-1.616 5.76 5.76 0 0 0 .323-1.884c0-.598-.107-1.196-.323-1.794a3.857 3.857 0 0 0-.923-1.615c-.43-.479-.938-.718-1.522-.718H95.044Zm34.271 14.984a3.307 3.307 0 0 0 3.303-3.31 3.307 3.307 0 0 0-3.303-3.312 3.307 3.307 0 0 0-3.303 3.311 3.307 3.307 0 0 0 3.303 3.311Z"/></g></g></svg>