<svg xmlns="http://www.w3.org/2000/svg" width="103" height="30" fill="none"><g clip-path="url(#a)"><mask id="b" width="103" height="30" x="0" y="0" maskUnits="userSpaceOnUse" style="mask-type:luminance"><path fill="#fff" d="M102.2 0H.8v30h101.4V0Z"/></mask><g mask="url(#b)"><mask id="c" width="103" height="30" x="0" y="0" maskUnits="userSpaceOnUse" style="mask-type:luminance"><path fill="#fff" d="M102.2 0H.8v30h101.4V0Z"/></mask><g mask="url(#c)"><mask id="d" width="103" height="30" x="0" y="0" maskUnits="userSpaceOnUse" style="mask-type:luminance"><path fill="#fff" d="M102.2 0H.8v30h101.4V0Z"/></mask><g fill="#AAA9AD" mask="url(#d)"><path d="M99.106 4.668V2.901H97.44V1.767h1.666V0h1.227v1.767H102v1.134h-1.667v1.767h-1.227ZM25.932 10.65h3.553v6.45l-.448 2.362c0-1.7.162-3.212.486-4.537.324-1.325.823-2.363 1.496-3.113.698-.775 1.57-1.163 2.618-1.163h3.441v3.226h-3.067c-1.047 0-1.908.262-2.58.787-.674.525-1.173 1.325-1.497 2.4-.3 1.05-.449 2.4-.449 4.05V29.4h-3.553V10.65ZM43.693 30c-1.147 0-2.207-.237-3.18-.712a5.768 5.768 0 0 1-2.28-2.026c-.574-.9-.861-1.937-.861-3.112 0-1.55.436-2.763 1.31-3.638.897-.9 2.006-1.525 3.328-1.875 1.346-.35 2.843-.575 4.488-.675 1.397-.05 2.344-.3 2.843-.75.498-.475.66-1.062.486-1.762-.15-.675-.561-1.2-1.234-1.575-.649-.4-1.546-.6-2.693-.6-1.422 0-2.544.312-3.366.937-.798.6-1.198 1.5-1.198 2.7l-3.478-.375c0-1.225.337-2.325 1.01-3.3.673-1 1.62-1.775 2.843-2.325 1.247-.575 2.643-.863 4.189-.863 2.344 0 4.189.538 5.536 1.613 1.371 1.075 2.056 2.875 2.056 5.4V29.4H49.94v-5.25l.374-1.5c0 1.35-.261 2.587-.785 3.712-.499 1.126-1.247 2.013-2.244 2.663-.998.65-2.195.975-3.591.975Zm.748-3.225c.997 0 1.908-.238 2.73-.713.848-.475 1.521-1.187 2.02-2.137.499-.975.748-2.188.748-3.638v-2.7l.486-.487c0 1-.212 1.775-.635 2.325-.4.525-.91.887-1.534 1.087-.623.2-1.371.35-2.244.45h-.225c-1.42.075-2.568.338-3.44.788-.873.425-1.31 1.187-1.31 2.287 0 .55.125 1.025.374 1.425.275.4.674.725 1.197.975.524.225 1.135.338 1.833.338ZM55.754 10.65h3.553v6.45l-.449 2.362c0-1.7.162-3.212.486-4.537.325-1.325.823-2.363 1.497-3.113.698-.775 1.57-1.163 2.618-1.163H66.9v3.226h-3.067c-1.047 0-1.907.262-2.58.787-.674.525-1.173 1.325-1.497 2.4-.3 1.05-.449 2.4-.449 4.05V29.4h-3.553V10.65ZM73.515 30c-1.147 0-2.207-.237-3.18-.712a5.771 5.771 0 0 1-2.281-2.026c-.574-.9-.86-1.937-.86-3.112 0-1.55.436-2.763 1.309-3.638.897-.9 2.007-1.525 3.329-1.875 1.347-.35 2.842-.575 4.488-.675 1.396-.05 2.344-.3 2.843-.75.499-.475.66-1.062.486-1.762-.15-.675-.561-1.2-1.234-1.575-.649-.4-1.546-.6-2.694-.6-1.42 0-2.542.312-3.366.937-.798.6-1.197 1.5-1.197 2.7l-3.478-.375c0-1.225.337-2.325 1.01-3.3.673-1 1.62-1.775 2.843-2.325 1.247-.575 2.643-.863 4.188-.863 2.345 0 4.19.538 5.537 1.613 1.37 1.075 2.056 2.875 2.056 5.4V29.4h-3.553v-5.25l.375-1.5c0 1.35-.263 2.587-.786 3.712-.499 1.126-1.247 2.013-2.244 2.663-.998.65-2.195.975-3.59.975Zm.748-3.225c.998 0 1.907-.238 2.73-.713.848-.475 1.521-1.187 2.02-2.137.5-.975.748-2.188.748-3.638v-2.7l.486-.487c0 1-.212 1.775-.635 2.325-.4.525-.91.887-1.534 1.087-.623.2-1.371.35-2.244.45h-.224c-1.422.075-2.569.338-3.442.788-.872.425-1.308 1.187-1.308 2.287 0 .55.124 1.025.373 1.425.275.4.674.725 1.197.975.524.225 1.135.338 1.833.338ZM93.88 29.4c-1.82 0-3.216-.463-4.189-1.388-.947-.95-1.421-2.325-1.421-4.125V4.65h3.553v19.276c0 .75.187 1.312.561 1.687.374.375.935.563 1.683.563h3.367V29.4H93.88Zm-9.65-18.75h13.204v3.224H84.23V10.65ZM9.702 3.148h5.349L23.953 29.4H20.25L11.61 3.973h1.57L4.503 29.4H.8L9.702 3.15Z"/><path d="M18.893 21.679v-3.78l-3.243-2.135-3.243 2.134-3.243-2.134-3.243 2.134v3.78l3.243-2.133 3.243 2.134 3.243-2.134 3.243 2.134Z"/></g></g></g></g><defs><clipPath id="a"><path fill="#fff" d="M.8 0h101.4v30H.8z"/></clipPath></defs></svg>