<svg xmlns="http://www.w3.org/2000/svg" width="111" height="32" fill="none"><path fill="#05080C" d="M6.24 2.48v27.04c0 1.16-.32 1.48-1.48 1.48H2.2c-1.16 0-1.48-.32-1.48-1.48V2.48C.72 1.32 1.04 1 2.2 1h2.56c1.16 0 1.48.32 1.48 1.48Zm12.5 17.84c0-.56-.16-.72-.72-.72h-.48c-1.16 0-1.48-.32-1.48-1.48v-2.64c0-1.16.32-1.48 1.48-1.48h5.08c1.16 0 1.48.32 1.48 1.48v7.12c0 6.44-1.92 8.8-7.72 8.8s-7.72-2.36-7.72-8.8V9.4c0-6.44 1.92-8.8 7.72-8.8s7.64 2.36 7.64 8.8v.2c0 1.16-.32 1.48-1.48 1.48h-2.56c-1.16 0-1.48-.32-1.48-1.48V8.44c0-1.6-.68-2.24-2.08-2.24s-2.08.64-2.08 2.24v15.12c0 1.6.72 2.24 2.2 2.24 1.52 0 2.2-.64 2.2-2.24v-3.24Zm17.726-9.44c.2.36.28.44.52.44s.32-.12.32-.4V2.48c0-1.16.32-1.48 1.48-1.48h2.44c1.16 0 1.48.32 1.48 1.48v27.04c0 1.16-.32 1.48-1.48 1.48h-2.44c-1.16 0-1.48-.32-1.48-1.48v-5.48c0-1.88-.28-2.56-.96-3.84l-3.72-6.92c-.2-.36-.28-.44-.52-.44s-.32.12-.32.4v16.28c0 1.16-.32 1.48-1.48 1.48h-2.44c-1.16 0-1.48-.32-1.48-1.48V2.48c0-1.16.32-1.48 1.48-1.48h1.56c1.48 0 2.04.24 2.88 1.88l4.16 8Zm14.6-8.4v27.04c0 1.16-.32 1.48-1.48 1.48h-2.56c-1.16 0-1.48-.32-1.48-1.48V2.48c0-1.16.32-1.48 1.48-1.48h2.56c1.16 0 1.48.32 1.48 1.48Zm13.84 4.12h-2.48c-.56 0-.72.16-.72.72v22.2c0 1.16-.32 1.48-1.48 1.48h-2.56c-1.16 0-1.48-.32-1.48-1.48V7.32c0-.56-.16-.72-.72-.72h-2.48c-1.16 0-1.48-.32-1.48-1.48V2.48c0-1.16.32-1.48 1.48-1.48h11.92c1.16 0 1.48.32 1.48 1.48v2.64c0 1.16-.32 1.48-1.48 1.48Zm7.451.72v4.48c0 .52.16.72.72.72h4.96c1.16 0 1.48.32 1.48 1.48v2.64c0 1.16-.32 1.48-1.4 1.48h-5.04c-.56 0-.72.16-.72.72v5.84c0 .52.16.72.72.72h5.44c1.16 0 1.48.32 1.48 1.48v2.64c0 1.16-.32 1.48-1.48 1.48h-10.2c-1.16 0-1.48-.32-1.48-1.48V2.48c0-1.16.32-1.48 1.48-1.48h10.2c1.16 0 1.48.32 1.48 1.48v2.64c0 1.16-.32 1.48-1.48 1.48h-5.44c-.56 0-.72.16-.72.72ZM85.105 16c0-.24-.08-.4-.44-.88l-1.64-2.24c-2-2.72-2.16-3.56-2.16-6.96V2.44c0-1.12.32-1.44 1.48-1.44h2.72c1.16 0 1.48.32 1.48 1.44v3.48c0 1.84.04 2.28 1 3.84l.64 1.04c.16.28.32.36.52.36s.36-.08.52-.36l.64-1.04c.96-1.56 1-2 1-3.84V2.44c0-1.12.32-1.44 1.48-1.44h2.72c1.16 0 1.48.32 1.48 1.44v3.48c0 3.4-.16 4.24-2.16 6.96l-1.64 2.24c-.36.48-.44.64-.44.88s.08.4.44.88l1.64 2.24c2 2.72 2.16 3.56 2.16 6.96v3.48c0 1.12-.32 1.44-1.48 1.44h-2.72c-1.16 0-1.48-.32-1.48-1.44v-3.48c0-1.84-.04-2.24-1-3.84l-.64-1.04c-.16-.28-.32-.36-.52-.36s-.36.08-.52.36l-.64 1.04c-.96 1.6-1 2-1 3.84v3.48c0 1.12-.32 1.44-1.48 1.44h-2.72c-1.16 0-1.48-.32-1.48-1.44v-3.48c0-3.4.16-4.24 2.16-6.96l1.64-2.24c.36-.48.44-.64.44-.88ZM104.02 2.68h-.744c-.168 0-.216.048-.216.216v6.66c0 .348-.096.444-.444.444h-.768c-.348 0-.444-.096-.444-.444v-6.66c0-.168-.048-.216-.216-.216h-.744c-.348 0-.444-.096-.444-.444v-.792c0-.348.096-.444.444-.444h3.576c.348 0 .444.096.444.444v.792c0 .348-.096.444-.444.444Zm3.879 4.764h-.288c-.408 0-.528-.072-.648-.432l-.588-1.86c-.036-.12-.06-.132-.12-.132-.072 0-.096.024-.096.132v4.404c0 .348-.096.444-.444.444h-.672c-.348 0-.444-.096-.444-.444V1.444c0-.348.096-.444.444-.444h.768c.528 0 .696.12.852.624l.948 3.12c.036.108.072.144.144.144s.108-.036.144-.144l.948-3.12c.156-.504.324-.624.852-.624h.768c.348 0 .444.096.444.444v8.112c0 .348-.096.444-.444.444h-.672c-.348 0-.444-.096-.444-.444V5.152c0-.108-.024-.132-.096-.132-.06 0-.084.012-.12.132l-.588 1.86c-.12.36-.24.432-.648.432Z"/></svg>