<svg xmlns="http://www.w3.org/2000/svg" width="750" height="1064" fill="none"><path fill="#F5F5F5" d="M113.609 1063.31c-34.91 0-62.426-6.51-82.544-19.53C10.355 1030.76 0 1014.19 0 994.075c0-18.935 7.1-36.687 21.302-53.255 14.201-16.568 32.544-31.657 55.03-45.266 23.076-13.018 47.928-24.852 74.556-35.503 27.219-10.059 53.55-18.639 78.994-25.74 26.035-6.509 48.816-10.946 68.343-13.313 18.343-2.959 38.461-5.326 60.355-7.101l67.456-5.325c23.076-1.184 43.786-1.776 62.13-1.776 21.893-37.278 39.645-72.485 53.254-105.621 14.201-33.136 26.627-71.302 37.278-114.497l3.551-14.201c-11.243 10.651-27.219 23.669-47.929 39.053-20.119 14.793-43.787 29.882-71.006 45.266-26.628 14.793-55.326 27.219-86.095 37.279-30.178 10.059-61.243 15.088-93.195 15.088-42.012 0-78.403-10.059-109.172-30.177-30.177-20.119-53.55-47.929-70.118-83.432-15.977-36.095-23.965-77.515-23.965-124.261 0-27.81 3.55-57.396 10.651-88.757 7.1-31.953 18.639-64.497 34.616-97.633-18.344-18.935-32.84-39.941-43.492-63.018-10.059-23.077-15.088-46.745-15.088-71.006 0-21.301 4.438-42.307 13.313-63.017 8.876-21.302 22.781-41.716 41.716-61.243 5.326-5.917 10.355-8.876 15.089-8.876 2.367 0 3.55 1.184 3.55 3.55 0 3.55-2.071 7.693-6.213 12.426-13.609 16.569-23.668 34.024-30.177 52.367-6.51 18.344-9.764 36.687-9.764 55.03 0 20.71 3.847 41.124 11.539 61.243 8.284 20.118 19.822 38.757 34.615 55.917 15.385-32.545 36.391-64.201 63.018-94.971 27.219-30.769 58.876-58.284 94.97-82.544 36.095-24.852 75.444-44.379 118.048-58.58C459.763 7.388 504.142-.009 550.296-.009c61.538 0 110.059 13.314 145.562 39.941C731.953 66.56 750 106.797 750 160.643c0 25.443-7.101 50.887-21.302 76.331-13.609 25.444-34.615 48.817-63.017 70.118-27.811 21.302-62.722 38.462-104.734 51.48-41.42 13.017-89.645 20.118-144.675 21.301-43.195.592-85.799-4.733-127.81-15.976-42.012-11.834-77.515-27.219-106.509-46.154-14.793 31.361-25.74 62.13-32.841 92.308-6.508 29.586-9.763 57.396-9.763 83.432 0 59.763 14.497 105.325 43.491 136.686 29.586 31.361 68.935 47.042 118.048 47.042 26.627 0 53.254-3.847 79.881-11.539 27.219-8.284 52.367-18.935 75.444-31.952 23.077-13.018 42.604-26.628 58.58-40.829 16.568-14.793 27.515-28.402 32.84-40.828 13.61-30.77 26.923-52.071 39.941-63.906 13.609-12.426 25.74-18.639 36.39-18.639 8.876 0 16.273 4.142 22.19 12.426 6.509 7.693 8.876 18.344 7.1 31.953-5.917 49.112-19.526 96.746-40.828 142.899-20.71 46.154-47.633 96.154-80.769 150 40.237.592 76.331 2.663 108.284 6.213 32.544 4.143 61.834 9.468 87.87 15.977 7.1 1.775 11.834 3.846 14.201 6.213 2.958 2.958 4.438 5.325 4.438 7.1 0 4.142-3.551 6.213-10.651 6.213-3.55 0-8.58-.887-15.089-2.662-13.609-3.551-31.657-6.805-54.142-9.764-22.485-2.366-46.746-4.142-72.781-5.325-25.444-1.183-50-1.775-73.669-1.775-24.852 35.503-54.438 67.455-88.757 95.858-33.728 28.994-69.823 53.846-108.284 74.556-37.87 20.71-75.148 36.39-111.834 47.04-36.095 11.24-68.639 16.87-97.634 16.87Zm278.699-710.064c40.236 0 79.29-5.325 117.159-15.976 37.87-10.651 71.894-25.444 102.071-44.379 30.178-18.935 54.143-40.828 71.894-65.68 18.343-25.444 27.515-52.367 27.515-80.77 0-26.035-7.397-48.225-22.19-66.568-14.201-18.935-32.544-33.432-55.029-43.49-22.485-10.06-46.45-15.09-71.894-15.09-40.236 0-78.698 7.693-115.384 23.077-36.687 15.385-70.71 36.095-102.071 62.131-31.361 25.443-60.059 54.437-86.095 86.982-25.444 32.544-47.041 65.976-64.793 100.296 24.26 18.343 53.55 32.84 87.87 43.491 34.911 10.651 71.893 15.976 110.947 15.976ZM111.834 1040.23c23.077 0 50.296-4.74 81.657-14.2 31.361-8.88 64.201-22.19 98.521-39.944 34.319-17.751 67.16-39.645 98.521-65.68 31.952-26.036 59.763-55.917 83.432-89.645a1967.405 1967.405 0 0 0-84.32 3.55 963.502 963.502 0 0 0-81.657 10.651c-14.793 2.367-33.136 6.805-55.029 13.314-21.302 6.509-43.492 14.793-66.568 24.852-23.077 10.059-44.971 21.302-65.681 33.728-20.118 12.426-36.686 25.739-49.704 39.94-12.426 14.202-18.64 28.699-18.64 43.494 0 10.65 4.439 19.82 13.314 27.51 9.468 8.29 24.852 12.43 46.154 12.43Z"/></svg>