<svg xmlns="http://www.w3.org/2000/svg" width="30" height="30" fill="none"><path fill="#fff" d="M15 30c4.166 0 7.705-1.455 10.622-4.374C28.54 22.708 30 19.166 30 15c0-4.166-1.46-7.703-4.378-10.622C22.705 1.46 19.166 0 15 0 10.665 0 7.085 1.46 4.25 4.378 1.417 7.297 0 10.834 0 15c0 4.166 1.417 7.707 4.25 10.626C7.085 28.546 10.665 30 15 30ZM8.918 14.215c1.57-.302 2.767-.87 3.597-1.7.825-.826 1.394-2.028 1.7-3.597.303-1.57.589-3.749.85-6.54.172 2.791.413 4.97.72 6.54.302 1.57.87 2.77 1.7 3.597.826.83 2.048 1.398 3.663 1.7 1.61.307 3.768.589 6.474.85-2.706.176-4.864.417-6.474.72-1.615.306-2.837.875-3.663 1.7-.83.83-1.398 2.028-1.7 3.597-.307 1.57-.548 3.753-.72 6.54-.261-2.787-.547-4.97-.85-6.54-.306-1.57-.875-2.767-1.7-3.597-.83-.825-2.028-1.393-3.597-1.7-1.57-.303-3.753-.544-6.54-.72 2.787-.261 4.97-.543 6.54-.85Z"/></svg>