<svg xmlns="http://www.w3.org/2000/svg" width="171" height="207" fill="none"><path fill="#05080C" d="M73.885 129.851c-10.934 7.797-17.936 20.749-19.38 34.002 1.168.026 2.346-.204 3.338-.855 10.623-6.299 19.487-16.101 23.199-28.032a295.855 295.855 0 0 0-7.157-5.115Zm9.74-3.099a187.094 187.094 0 0 0-2.65 3.956c2.35 1.587 4.665 3.239 6.979 4.89a367.883 367.883 0 0 0 2.707-3.875c-2.35-1.644-4.7-3.304-7.036-4.971Zm-10.017-7.214c-.919 1.288-1.843 2.572-2.762 3.861a918.726 918.726 0 0 0 6.996 4.959c.91-1.286 1.82-2.573 2.73-3.85-2.326-1.645-4.654-3.289-6.964-4.97Zm32.517-70.845C98.113 59.92 90.104 71.156 82.098 82.386c3.434-.91 6.822-2.01 10.29-2.83-7.627 10.94-15.48 21.728-23.195 32.606 4.442 3.252 8.952 6.42 13.435 9.627 7.749-10.548 15.79-20.905 24.244-30.893-6.653 11.24-13.773 22.221-21.2 32.975 4.362 3.319 8.905 6.396 13.346 9.614 7.802-10.889 15.551-21.816 23.355-32.706.326 3.387.504 6.785.677 10.179 8.56-11.996 17.115-23.996 25.678-35.983 5.517-7.479 8.382-16.538 10.058-25.58-9.125-6.537-18.28-13.03-27.397-19.576 7.03-3.953 14.404-7.233 21.884-10.214-18.392 3.646-36.785 12.926-47.148 29.088Zm26.653 2.24c-6.248-3.19-14.546 1.086-15.852 7.914-1.432 6.127 3.165 12.785 9.46 13.488 5.808 1.015 11.702-3.297 12.77-9.042 1.156-4.956-1.788-10.319-6.378-12.36Zm-.31-1.942c4.965 1.78 8.583 6.775 8.537 12.08.126 7.026-6.296 13.497-13.404 13.012-7.361.02-13.47-7.256-12.431-14.496.785-7.899 9.865-13.651 17.298-10.596Zm-5.07 3.688c-2.972-1.099-4.141 3.84-1.165 4.53 2.788.698 3.987-3.81 1.165-4.53Zm4.6-.687c7.465 2.906 7.978 14.457.716 17.94-6.602 4.045-15.887-2.22-14.516-9.865.527-6.361 7.979-10.895 13.8-8.075Zm32.075-45.305c1.399-2.584 4.357-4.016 6.661-5.79-.776 2.923-1.623 5.852-3.112 8.504-.755.112-1.501.222-2.251.338-1.297 1.874-2.611 3.729-3.913 5.6 4.456 22 1.97 46.791-12.241 64.928a18512.341 18512.341 0 0 0-24.914 34.971c-.622.734-.939 1.651-.816 2.621a5142.026 5142.026 0 0 0 2.424 34.175 6754.197 6754.197 0 0 0-17.89 25.082c-4.195-12.903-8.24-25.854-12.43-38.762.479-.704.957-1.409 1.43-2.108l-3.354-2.42c-1.607 2.239-3.22 4.465-4.831 6.7-1.01-.753-2.027-1.512-3.041-2.26-.833 11.753-5.47 23.237-13.174 32.163-.066-3.383 3.033-7.102.853-10.199-10.007 11.853-21.597 23.352-36.445 28.794.028-15.367 6.875-29.846 14.55-42.828.581-.804.39-1.345-.58-1.634-3.045.851-5.14 3.474-8.09 4.491 6.046-10.042 15.329-18.03 26.064-22.708a720.365 720.365 0 0 0-3.068-2.223 547.19 547.19 0 0 1 4.68-6.651c-1.119-.832-2.239-1.664-3.35-2.497-.628.812-1.247 1.622-1.881 2.429-13.418.335-26.833 1.001-40.252 1.383 5.717-8.103 11.504-16.156 17.238-24.238.502-.877 1.359-1.419 2.336-1.611 10.127-2.765 20.219-5.686 30.336-8.483 1.039-.256 2.052-.719 2.586-1.697 9.934-13.816 19.691-27.767 29.725-41.504 13.141-15.507 32.957-23.803 52.675-26.907 1.987-2.09 4.289-4.566 4.075-7.66Z"/></svg>