<svg xmlns="http://www.w3.org/2000/svg" width="28" height="28" fill="none"><path fill="#131313" fill-rule="evenodd" d="M14.81 13.043h12.53a.257.257 0 0 0 .257-.257v-.384c0-.117-.08-.22-.193-.249A16.772 16.772 0 0 1 15.371.192.258.258 0 0 0 15.123 0h-.312a.257.257 0 0 0-.257.257v12.53c0 .141.115.256.257.256Zm0 14.538h.385c.117 0 .22-.08.249-.193a16.772 16.772 0 0 1 11.961-12.033.257.257 0 0 0 .192-.248v-.312a.257.257 0 0 0-.257-.257H14.81a.257.257 0 0 0-.256.257v12.53c0 .141.115.256.257.256Zm-2.336 0h.312a.257.257 0 0 0 .257-.257V14.795a.257.257 0 0 0-.257-.257H.257a.257.257 0 0 0-.257.257v.384c0 .118.08.22.193.25a16.772 16.772 0 0 1 12.033 11.96c.03.114.131.192.248.192ZM.257 13.043h12.529a.257.257 0 0 0 .257-.257V.257A.257.257 0 0 0 12.786 0h-.384c-.117 0-.22.08-.249.193A16.773 16.773 0 0 1 .191 12.226a.257.257 0 0 0-.191.249v.311c0 .142.115.257.257.257Z" clip-rule="evenodd"/></svg>