<svg xmlns="http://www.w3.org/2000/svg" width="171" height="207" fill="none"><path fill="#05080C" d="M.369 113.566c3.452 1.558 7.186.862 9.946-1.691-1.652 3.227-1.002 6.829 1.216 9.598-3.38-1.407-7.145-.56-9.632 2.105 1.632-3.374 1.233-7.34-1.53-10.012Zm165.646 16.249c.837-.111 1.673-.232 2.514-.349.162.824.332 1.647.524 2.475-.952.169-1.897.36-2.839.561-.058-.899-.126-1.796-.199-2.687ZM68.88 57.508c2.087.608 4.147.052 5.885-1.17-.675 1.973-.567 4.06.613 5.824-2.186-.596-4.27.223-6.023 1.502.976-2.048.78-4.28-.475-6.156Zm69.867 72.995c-.817 2.193-.618 4.535.656 6.514-2.171-.791-4.306.008-6.141 1.194.787-2.165.548-4.461-.928-6.272 2.288.662 4.662.255 6.413-1.436Zm-94.505 70.112c2.011.529 4.027.163 5.675-1.132-.59 1.993-.42 4.075.836 5.778-2-.834-4.022-.136-5.67 1.111.539-1.988.488-4.076-.841-5.757Zm85.417-84.884c-1.59-3.589 4.435-2.716 1.755.289-.445-.07-1.321-.217-1.755-.289Zm14.642 35.58c1.936-.324 1.974 3.131.022 2.948-1.93.188-1.951-3.073-.022-2.948ZM41.199 75.983c2.138.595 4.255.087 6.049-1.17-.655 2.004-.422 4.09.69 5.88-2.14-.489-4.232.135-5.908 1.526.643-2.136.603-4.413-.83-6.236Zm-21.765 1.552c1.702.292 3.355-.085 4.827-.97-.385 1.694-.213 3.414.57 4.97-1.82-.565-3.542.14-5.087 1.081.665-1.692.474-3.467-.31-5.081Zm6.78 84.168c2.096.745 4.206.2 5.965-1.064-.834 1.965-.52 4.052.592 5.842-2.042-.774-4.062-.032-5.653 1.32.63-2.096.649-4.372-.903-6.098Zm5.755-25.645c1.843-.562 3.07.05 2.983 2.088-.948.279-1.899.572-2.837.883a104.55 104.55 0 0 0-.146-2.971Zm50.04 52.346c2.2.912 4.422.199 6.275-1.106-.758 2.112-.643 4.409.807 6.21-2.305-.648-4.58.035-6.38 1.542.897-2.25.656-4.647-.703-6.646Zm-67.163 2.203c2.177-.06 2.33 3.418.105 3.362-2.08.179-2.203-3.261-.105-3.362Z"/></svg>