<svg xmlns="http://www.w3.org/2000/svg" width="69" height="30" fill="none"><path fill="#AAA9AD" d="M46.272 10.578V8.654l-5.007-2.232 5.007-2.13V2.386l-6.983 3.297V7.23l6.983 3.349ZM3.87 20.498c.386.676 1.124 1.014 2.214 1.014 1.09 0 1.822-.332 2.197-.996.386-.664.579-1.775.579-3.332 0-1.569-.2-2.708-.596-3.418-.386-.71-1.113-1.065-2.18-1.065-1.068 0-1.8.355-2.197 1.065-.398.71-.596 1.844-.596 3.4 0 1.546.193 2.657.579 3.332Zm5.892 1.237c-.692.962-1.919 1.443-3.678 1.443-1.76 0-2.992-.481-3.696-1.443-.704-.973-1.056-2.496-1.056-4.568 0-2.073.352-3.613 1.056-4.62.715-1.008 1.947-1.511 3.696-1.511 1.748 0 2.974.503 3.678 1.511.704.996 1.056 2.536 1.056 4.62 0 2.083-.352 3.606-1.056 4.568Zm4.081 1.254h-1.856v-8.587h1.84v.532c.828-.48 1.611-.721 2.35-.721 1.135 0 1.907.326 2.316.979.42.64.63 1.706.63 3.194v4.603h-1.84v-4.551c0-.928-.102-1.586-.306-1.975-.193-.39-.596-.584-1.21-.584a4.19 4.19 0 0 0-1.668.343l-.256.103v6.664Zm7.192 1.39h7.29v1.598h-7.29V24.38Zm9.493-1.39V11.225h7.357v1.665h-5.467v3.332h4.445v1.649h-4.445v3.435h5.467v1.683h-7.357Zm7.497-8.587h1.942l1.635 6.99h.545l1.703-6.99h1.89l-2.214 8.587h-3.304l-2.197-8.587Zm14.285 7.041.477-.052.034 1.392c-1.294.263-2.441.395-3.44.395-1.26 0-2.169-.35-2.725-1.048-.545-.698-.817-1.815-.817-3.349 0-3.045 1.231-4.568 3.695-4.568 2.384 0 3.577 1.31 3.577 3.933l-.12 1.34h-5.28c.012.71.165 1.23.46 1.562.296.332.847.498 1.653.498s1.635-.034 2.486-.103Zm-1.022-3.4c0-.848-.136-1.437-.408-1.77-.262-.343-.71-.514-1.346-.514-.636 0-1.101.177-1.396.532-.284.355-.432.939-.443 1.752h3.593Zm4.653 4.946h-1.856v-8.587h1.839v.532c.829-.48 1.612-.721 2.35-.721 1.136 0 1.908.326 2.316.979.42.64.63 1.706.63 3.194v4.603h-1.839v-4.551c0-.928-.102-1.586-.306-1.975-.193-.39-.597-.584-1.21-.584-.578 0-1.135.114-1.669.343l-.255.103v6.664Zm11.211-6.99h-2.35v3.778c0 .699.05 1.162.153 1.391.103.23.364.344.783.344l1.397-.052.085 1.494c-.76.15-1.34.224-1.737.224-.965 0-1.63-.224-1.993-.67-.352-.447-.528-1.288-.528-2.525V16h-1.09v-1.597h1.09v-2.49h1.84v2.49h2.35V16Zm-17.729-3.308 4.87-12.09L52.66 0l-4.854 12.108 1.618.583Zm5.952-2.113 6.983-3.35V5.684l-6.983-3.297v1.906l5.007 2.13-5.007 2.232v1.924Z"/></svg>