<svg xmlns="http://www.w3.org/2000/svg" width="156" height="30" fill="none"><path fill="#AAA9AD" d="M10.44 30c-2.32 0-4.313-.396-5.978-1.187-1.637-.791-3.125-1.978-4.462-3.56l3.685-3.684c.846 1.119 1.828 1.992 2.947 2.62 1.12.6 2.484.9 4.094.9 1.447 0 2.593-.287 3.44-.86.873-.573 1.31-1.364 1.31-2.374 0-.873-.247-1.582-.738-2.128s-1.146-1.01-1.965-1.391a18.693 18.693 0 0 0-2.66-1.024 48.214 48.214 0 0 1-2.908-1.105 13.427 13.427 0 0 1-2.66-1.514 7.163 7.163 0 0 1-1.925-2.374c-.491-.982-.737-2.21-.737-3.683 0-1.746.423-3.234 1.27-4.461.845-1.228 2.005-2.17 3.48-2.824C8.105.696 9.77.368 11.626.368c1.965 0 3.739.369 5.322 1.105 1.583.737 2.88 1.692 3.89 2.865l-3.685 3.684c-.846-.928-1.72-1.61-2.62-2.047-.874-.436-1.87-.654-2.989-.654-1.283 0-2.293.245-3.03.736-.736.491-1.105 1.2-1.105 2.129 0 .79.246 1.432.737 1.923.491.491 1.133.914 1.924 1.269a36.38 36.38 0 0 0 2.661 1.023 37.37 37.37 0 0 1 2.907 1.105c.983.41 1.87.941 2.661 1.596.819.655 1.474 1.501 1.965 2.538.491 1.01.737 2.264.737 3.765 0 2.674-.942 4.775-2.825 6.303C16.294 29.236 13.715 30 10.44 30Zm14.383-.41V9.824h5.404V29.59h-5.404Zm2.702-22.96c-.873 0-1.596-.286-2.17-.86-.573-.6-.86-1.336-.86-2.21 0-.845.287-1.568.86-2.168.574-.6 1.297-.9 2.17-.9.9 0 1.624.3 2.17.9.573.6.86 1.323.86 2.169 0 .873-.287 1.61-.86 2.21-.546.573-1.27.86-2.17.86Zm7.453 22.96V0h5.363v29.59h-5.363Zm10.115 0V9.824h5.404V29.59h-5.404Zm2.702-22.96c-.873 0-1.596-.286-2.17-.86-.573-.6-.86-1.336-.86-2.21 0-.845.287-1.568.86-2.168.574-.6 1.297-.9 2.17-.9.9 0 1.624.3 2.17.9.573.6.86 1.323.86 2.169 0 .873-.287 1.61-.86 2.21-.546.573-1.27.86-2.17.86ZM64.582 30c-2.02 0-3.834-.45-5.445-1.35a10.084 10.084 0 0 1-3.807-3.684c-.928-1.555-1.392-3.302-1.392-5.239 0-1.964.464-3.724 1.392-5.28a10.075 10.075 0 0 1 3.807-3.683c1.638-.928 3.453-1.392 5.445-1.392 1.556 0 2.989.287 4.299.86a9.783 9.783 0 0 1 3.398 2.456l-3.439 3.478a5.097 5.097 0 0 0-1.883-1.31c-.71-.3-1.501-.45-2.375-.45-.982 0-1.87.232-2.66.696a4.972 4.972 0 0 0-1.843 1.842c-.437.764-.655 1.678-.655 2.742 0 1.037.218 1.965.655 2.783a5.299 5.299 0 0 0 1.842 1.883c.792.436 1.679.655 2.661.655.901 0 1.706-.15 2.416-.45a5.296 5.296 0 0 0 1.883-1.392l3.48 3.479a10.366 10.366 0 0 1-3.48 2.497c-1.31.573-2.743.859-4.299.859Zm19.67 0c-1.993 0-3.794-.45-5.404-1.35a10.822 10.822 0 0 1-3.808-3.725c-.928-1.583-1.392-3.343-1.392-5.28 0-1.937.464-3.67 1.392-5.197a10.078 10.078 0 0 1 3.808-3.684c1.61-.928 3.397-1.392 5.362-1.392 2.02 0 3.822.464 5.405 1.392a10.07 10.07 0 0 1 3.807 3.684c.928 1.527 1.392 3.26 1.392 5.197 0 1.938-.464 3.697-1.392 5.28-.928 1.555-2.197 2.797-3.807 3.724-1.583.9-3.37 1.351-5.363 1.351Zm-.042-4.993c1.01 0 1.897-.219 2.662-.655a4.6 4.6 0 0 0 1.801-1.883c.437-.818.655-1.746.655-2.783s-.218-1.95-.655-2.742a4.682 4.682 0 0 0-1.801-1.842c-.765-.463-1.652-.695-2.662-.695-.982 0-1.855.232-2.62.695a4.681 4.681 0 0 0-1.801 1.842c-.437.791-.655 1.705-.655 2.742s.218 1.965.655 2.783a4.978 4.978 0 0 0 1.801 1.883c.765.436 1.638.655 2.62.655Zm27.362 4.584V18.254c0-1.174-.368-2.129-1.105-2.865-.737-.737-1.692-1.105-2.866-1.105-.764 0-1.446.163-2.047.49-.6.328-1.078.792-1.433 1.392-.327.6-.491 1.296-.491 2.088l-2.088-1.064c0-1.556.327-2.906.983-4.052a7.26 7.26 0 0 1 2.783-2.742c1.201-.655 2.552-.983 4.054-.983 1.446 0 2.742.369 3.888 1.105a7.66 7.66 0 0 1 2.703 2.824 7.378 7.378 0 0 1 .982 3.725V29.59h-5.363Zm-13.305 0V9.823h5.363V29.59h-5.363ZM124.94 30c-.983 0-1.788-.327-2.415-.982-.629-.655-.942-1.46-.942-2.415 0-.955.313-1.76.942-2.415.627-.655 1.432-.982 2.415-.982.955 0 1.747.327 2.374.982.628.655.942 1.46.942 2.415 0 .955-.314 1.76-.942 2.415-.627.655-1.419.982-2.374.982Zm15.175-.41L128.775.82h6.018l8.761 23.287h-2.333L150.064.82H156l-11.463 28.77h-4.422Z"/></svg>