<svg xmlns="http://www.w3.org/2000/svg" width="27" height="30" fill="none"><path fill="#05080C" d="M20.736 21.262c-1.516 1.362-3.517 2.118-5.713 2.118-4.842 0-8.397-3.556-8.397-8.437 0-4.882 3.442-8.288 8.397-8.288 2.158 0 4.197.719 5.752 2.082l1.056.908 4.694-4.692-1.175-1.06C22.588 1.4 18.92 0 15.02 0 6.319 0 .001 6.28.001 14.906 0 23.496 6.47 30 15.02 30c3.973 0 7.678-1.4 10.405-3.933l1.135-1.06-4.767-4.689-1.058.944Z"/><path fill="#FF3D2E" d="M14.793 9.986a5.033 5.033 0 1 1 0 10.067 5.033 5.033 0 0 1 0-10.067Z"/></svg>