<svg xmlns="http://www.w3.org/2000/svg" width="15" height="16" fill="none"><g clip-path="url(#a)"><path fill="#fff" d="M13.75.5H1.25A1.25 1.25 0 0 0 0 1.75v12.5a1.25 1.25 0 0 0 1.25 1.25h12.5A1.25 1.25 0 0 0 15 14.25V1.75A1.25 1.25 0 0 0 13.75.5ZM7.5 12.375c-1.723 0-3.125-1.121-3.125-2.5a.625.625 0 0 1 1.25 0c0 .677.86 1.25 1.875 1.25 1.016 0 1.875-.573 1.875-1.25 0-.74-.673-1.016-2.1-1.427-1.23-.354-2.76-.796-2.76-2.323 0-1.425 1.283-2.5 2.985-2.5 1.228 0 2.28.57 2.744 1.484a.623.623 0 0 1-.507.923.625.625 0 0 1-.608-.359c-.25-.49-.875-.798-1.629-.798-.99 0-1.736.537-1.736 1.25 0 .547.703.79 1.857 1.122 1.268.362 3.004.866 3.004 2.628 0 1.379-1.402 2.5-3.125 2.5Z"/></g><defs><clipPath id="a"><path fill="#fff" d="M0 0h15v16H0z"/></clipPath></defs></svg>