<svg xmlns="http://www.w3.org/2000/svg" width="30" height="30" fill="none"><g fill="#F5F5F5" clip-path="url(#a)"><path d="M22.383 0v2.93H7.617V0H0v7.617h2.93v14.766H0V30h7.617v-7.617h-2.93V7.617h2.93v-2.93h14.766v2.93H30V0h-7.617Z"/><path d="M18.516 9.434h-6.81l-.515.514 6.21 6.21a2.64 2.64 0 0 1 3.692 2.416 2.64 2.64 0 0 1-2.636 2.637 2.64 2.64 0 0 1-2.637-2.637c0-.437.108-.85.298-1.214l-6.17-6.169-.514.515v6.81a6.746 6.746 0 0 0 6.738 6.738h3.151l5.93-5.93v-3.152a6.746 6.746 0 0 0-6.737-6.738ZM29.14 19.61c-.3-.3-.65-.521-1.023-.663l-9.17 9.17a2.92 2.92 0 0 0 2.735 1.88c.75 0 1.5-.286 2.072-.857l5.386-5.387a2.933 2.933 0 0 0 0-4.143Z"/><path d="M18.457 17.695a.88.88 0 0 0 0 1.758.88.88 0 0 0 0-1.758Z"/></g><defs><clipPath id="a"><path fill="#fff" d="M0 0h30v30H0z"/></clipPath></defs></svg>