<svg xmlns="http://www.w3.org/2000/svg" width="117" height="30" fill="none"><path fill="#AAA9AD" d="M39.755 23.286c1.184.583 2.6.875 4.25.875 1.734 0 3.226-.325 4.476-.975 1.25-.65 2.234-1.517 2.95-2.6a8.314 8.314 0 0 0 1.326-3.576H49.18c-.2 1.217-.775 2.167-1.725 2.85-.934.667-2.084 1-3.45 1-.934 0-1.759-.158-2.475-.474a5.022 5.022 0 0 1-1.776-1.326 6.103 6.103 0 0 1-1.1-2.025 8.55 8.55 0 0 1-.35-2.5c0-.933.117-1.784.35-2.55a6.069 6.069 0 0 1 1.075-2 4.55 4.55 0 0 1 1.75-1.3c.7-.317 1.5-.476 2.4-.476.884 0 1.676.15 2.376.45.7.284 1.275.717 1.725 1.3.467.567.767 1.267.9 2.1h3.575c-.15-1.433-.591-2.683-1.325-3.75-.733-1.083-1.716-1.916-2.95-2.5-1.217-.6-2.65-.9-4.3-.9-1.584 0-2.959.275-4.126.825-1.15.534-2.1 1.25-2.85 2.15-.75.9-1.308 1.9-1.675 3a10.99 10.99 0 0 0-.525 3.351v.55c0 1.017.175 2.075.525 3.175.35 1.1.892 2.117 1.625 3.05.75.934 1.717 1.692 2.9 2.276Z"/><path fill="#AAA9AD" fill-rule="evenodd" d="M62.028 22.036c.172-.292.313-.613.425-.965v2.615h2.75V15.26c0-1.267-.241-2.292-.725-3.075-.467-.784-1.167-1.359-2.1-1.725-.917-.367-2.075-.55-3.475-.55-.45 0-.934.008-1.45.025-.5 0-.992.016-1.476.05a73.88 73.88 0 0 0-1.3.1v2.95a37.35 37.35 0 0 1 1.575-.075 66.297 66.297 0 0 1 3.276-.1c.8 0 1.392.192 1.775.575.383.383.575.967.575 1.75v.125h-2.775c-1.2 0-2.25.159-3.15.475-.884.317-1.576.792-2.076 1.425-.483.634-.725 1.45-.725 2.45 0 .917.2 1.7.6 2.35.417.65.992 1.15 1.725 1.5.75.35 1.617.526 2.6.526.95 0 1.75-.167 2.4-.5a3.735 3.735 0 0 0 1.55-1.5Zm-.625-1.625c.283-.434.442-1.017.475-1.75v-1.276h-2.825c-.8 0-1.417.2-1.85.6-.417.384-.626.884-.626 1.5 0 .617.209 1.117.626 1.5.433.384 1.05.576 1.85.576a3.41 3.41 0 0 0 1.325-.25 2.312 2.312 0 0 0 1.025-.9Z" clip-rule="evenodd"/><path fill="#AAA9AD" d="M73.701 24.16c-1.183 0-2.208-.2-3.075-.599a6.487 6.487 0 0 1-2.15-1.6 6.85 6.85 0 0 1-1.275-2.25 7.878 7.878 0 0 1-.425-2.55v-.476c0-.916.141-1.791.425-2.625.3-.85.741-1.6 1.325-2.25a6.204 6.204 0 0 1 2.15-1.575c.867-.4 1.867-.6 3-.6 1.184 0 2.242.233 3.175.7.934.45 1.676 1.083 2.226 1.9.566.817.883 1.767.95 2.85h-3.375a2.717 2.717 0 0 0-.9-1.75c-.5-.467-1.192-.7-2.076-.7-.767 0-1.408.183-1.925.55-.5.367-.875.875-1.125 1.525-.25.634-.375 1.367-.375 2.2 0 .8.117 1.526.35 2.175.25.65.625 1.159 1.125 1.526.517.366 1.175.55 1.975.55.6 0 1.117-.108 1.55-.325a2.565 2.565 0 0 0 1.025-.9 2.94 2.94 0 0 0 .5-1.3h3.376c-.067 1.1-.392 2.067-.975 2.9-.567.816-1.325 1.458-2.276 1.925-.933.467-2 .7-3.2.7Zm10.785-.774c.817.316 1.85.475 3.1.475h1.95v-2.976h-2.125c-.667 0-1.183-.175-1.55-.525-.35-.366-.525-.883-.525-1.55l.012-6.15h4.188v-2.55h-4.183l.008-3.826h-3.25l-.008 3.826h-2.168v2.55h2.162l-.011 5.925c0 1.317.2 2.367.6 3.15.4.767 1 1.317 1.8 1.65Zm11.342.724c-1.567 0-2.783-.516-3.65-1.55-.85-1.033-1.275-2.566-1.275-4.6v-7.876h3.475v8.176c0 .834.234 1.5.7 2 .467.484 1.1.725 1.9.725.8 0 1.45-.258 1.95-.775.517-.516.776-1.216.776-2.1v-8.025h3.475v13.6h-2.75v-3.16a6.69 6.69 0 0 1-.25.81c-.35.917-.875 1.609-1.576 2.076-.7.466-1.575.7-2.625.7h-.15Zm10.618-1.174c1.067.783 2.534 1.175 4.401 1.175 1.2 0 2.241-.184 3.125-.55.883-.367 1.567-.875 2.05-1.526.5-.666.75-1.45.75-2.35 0-1.216-.458-2.183-1.375-2.9-.9-.717-2.15-1.158-3.75-1.325l-1.201-.125c-.733-.083-1.266-.242-1.599-.475-.317-.233-.476-.567-.476-1 0-.45.2-.817.6-1.1.4-.284.967-.425 1.701-.425.816 0 1.441.166 1.875.5.433.333.666.733.7 1.2h3.125c-.05-1.417-.592-2.492-1.625-3.225-1.034-.734-2.384-1.1-4.05-1.1-1.067 0-2.017.166-2.851.5-.816.316-1.458.791-1.925 1.425-.467.633-.7 1.416-.7 2.35 0 1.167.409 2.1 1.225 2.8.817.7 1.984 1.134 3.5 1.3l1.201.125c.9.084 1.533.259 1.9.525.383.267.575.625.575 1.076 0 .516-.25.924-.75 1.224-.484.3-1.142.45-1.975.45-1 0-1.734-.191-2.201-.575-.466-.383-.725-.808-.775-1.275h-3.125c.05 1.4.6 2.5 1.65 3.3Z"/><path fill="#AAA9AD" fill-rule="evenodd" d="M15 0C6.716 0 0 6.716 0 15c0 8.284 6.716 15 15 15 8.284 0 15-6.716 15-15 0-8.284-6.716-15-15-15ZM3.364 15C3.364 8.573 8.573 3.364 15 3.364S26.637 8.574 26.637 15c0 5.865-4.34 10.717-9.983 11.52v-2.567l2.987-1.103a4.394 4.394 0 0 0 2.872-4.122v-5.054a1.682 1.682 0 0 0-3.363 0v5.054c0 .432-.27.818-.674.967l-1.822.673V7.056a1.682 1.682 0 0 0-3.363 0v7.216l-1.768-.653a1.03 1.03 0 0 1-.674-.967v-2.178a1.682 1.682 0 0 0-3.363 0v2.178a4.394 4.394 0 0 0 2.872 4.123l2.933 1.082v8.655C7.674 25.685 3.363 20.846 3.363 15Z" clip-rule="evenodd"/></svg>