<svg xmlns="http://www.w3.org/2000/svg" width="88" height="30" fill="none"><g clip-path="url(#a)"><mask id="b" width="92" height="31" x="-2" y="-1" maskUnits="userSpaceOnUse" style="mask-type:luminance"><path fill="#fff" d="M89.615-.075H-1.86v30h91.474v-30Z"/></mask><g fill="#AAA9AD" mask="url(#b)"><path d="M33.115 21.67h-7.917V7.483h7.496c1.08 0 1.972.127 2.674.382.716.24 1.249.62 1.6 1.143.35.508.526 1.165.526 1.97 0 .889-.238 1.595-.716 2.117-.477.523-1.2.826-2.168.91v.276c1.193.042 2.077.388 2.653 1.038.59.65.884 1.454.884 2.414 0 .819-.182 1.525-.547 2.117-.351.593-.899 1.045-1.643 1.356-.744.31-1.691.466-2.842.466Zm-3.959-5.696v2.118h3.812c.378 0 .666-.057.863-.17.196-.113.294-.402.294-.868 0-.48-.09-.776-.273-.89-.183-.126-.477-.19-.884-.19h-3.812Zm0-4.913v1.821h3.327c.407 0 .68-.063.821-.19.155-.127.232-.367.232-.72 0-.381-.091-.628-.274-.741-.168-.113-.456-.17-.863-.17h-3.243Zm14.957 10.821c-1.165 0-2.162-.219-2.99-.656a4.615 4.615 0 0 1-1.874-1.906c-.42-.833-.632-1.828-.632-2.986 0-1.2.218-2.23.653-3.091a4.468 4.468 0 0 1 1.916-1.97c.843-.466 1.86-.699 3.053-.699 1.165 0 2.134.212 2.906.636.786.423 1.368 1.009 1.748 1.757.392.734.589 1.588.589 2.563 0 .296-.021.592-.063.889-.042.296-.077.536-.105.72h-9.012v-2.16h5.58l-.169.106a1.328 1.328 0 0 0-.126-.678c-.085-.212-.253-.381-.506-.508-.238-.127-.589-.19-1.052-.19-.646 0-1.095.12-1.348.36-.253.225-.379.592-.379 1.1v1.504c0 .523.042.925.126 1.207.085.268.26.452.527.55.267.1.674.149 1.221.149.477 0 .807-.05.99-.148.182-.113.274-.29.274-.53v-.042h3.916v.254c0 .734-.218 1.384-.653 1.948-.421.565-1.025 1.01-1.81 1.334-.773.325-1.7.487-2.78.487Zm10.188-.211h-3.938V10.786h3.685v3.092l.253.106v7.687Zm0-6.883h-.8v-2.35h.737a4.105 4.105 0 0 1 1.22-1.334c.52-.353 1.138-.53 1.854-.53.701 0 1.256.141 1.663.424.407.282.702.684.884 1.207.183.522.274 1.143.274 1.863v1.97h-3.959v-1.08c0-.41-.056-.685-.168-.826-.112-.141-.35-.212-.716-.212-.323 0-.568.05-.737.148-.168.085-.252.325-.252.72Zm10.466 6.883h-3.938V7.482h3.938v14.189Zm5.202-11.86H66.03V7.483h3.938v2.33Zm.021 11.86h-3.959V10.786h3.959v10.885Zm12.53 0h-3.96V15.53c0-.58-.105-.982-.315-1.208-.197-.225-.646-.338-1.348-.338-.435 0-.779.042-1.032.127a.92.92 0 0 0-.526.444c-.098.212-.148.516-.148.911h-.631v-3.028h.568c.197-.41.47-.748.821-1.017a3.602 3.602 0 0 1 1.222-.635 5.104 5.104 0 0 1 1.495-.212c.94 0 1.691.19 2.252.572.562.367.97.868 1.222 1.503a5.42 5.42 0 0 1 .38 2.055v6.967Zm-7.329 0h-3.937V10.786h3.685v2.986l.252.106v7.793Zm13.22 0h-4.717v-4.384h4.716v4.384ZM17.442 4.337H-.105a1.76 1.76 0 0 0-1.754 1.765v17.647a1.76 1.76 0 0 0 1.754 1.764h17.547c.969 0 1.754-.79 1.754-1.764V6.102a1.76 1.76 0 0 0-1.754-1.765ZM14.81 2.572H2.528a.88.88 0 0 1-.877-.882V.808a.88.88 0 0 1 .877-.883H14.81a.88.88 0 0 1 .877.883v.882a.88.88 0 0 1-.877.882Zm0 27.354H2.528a.88.88 0 0 1-.877-.882v-.883a.88.88 0 0 1 .877-.882H14.81a.88.88 0 0 1 .877.882v.883a.88.88 0 0 1-.877.882Z"/><path fill-rule="evenodd" d="M15.738 12.332a.886.886 0 0 1 0 1.248l-6.89 6.93a.874.874 0 0 1-1.24 0l-5.136-5.165a.886.886 0 0 1 0-1.248l1.861-1.872a.874.874 0 0 1 1.24 0l2.655 2.67 4.408-4.434a.874.874 0 0 1 1.241 0l1.861 1.871Z" clip-rule="evenodd"/></g></g><defs><clipPath id="a"><path fill="#fff" d="M0 0h88v30H0z"/></clipPath></defs></svg>